<svg xmlns="http://www.w3.org/2000/svg" xmlns:xlink="http://www.w3.org/1999/xlink" id="Layer_1" data-name="Layer 1" viewBox="0 0 884 264.8727"><defs><linearGradient id="linear-gradient" x1="835.5723" y1="-33.0837" x2="842.5495" y2="-33.0837" gradientTransform="translate(-26093.28 1165.97) scale(31.24)" gradientUnits="userSpaceOnUse"><stop offset="0" stop-color="#f3993e"></stop><stop offset="1" stop-color="#ed4834"></stop></linearGradient></defs><g><path id="fullLogo" d="M216.995,63.189l-11.3185-6.5333v125.837l-86.6983,50.0559L32.2765,182.4927V82.3808l86.7017-50.0559L161.27,56.7407v97.204L118.9782,178.36,76.6834,153.9447V110.4969L62.62,116.5643a13.342,13.342,0,0,0-8.0672,12.264v28.1092A16.9847,16.9847,0,0,0,63.025,171.61l47.4779,27.4154a16.9813,16.9813,0,0,0,16.94,0l47.478-27.412a16.9846,16.9846,0,0,0,8.4718-14.672V43.7115h-.1394L129.9362,12.9256a21.9911,21.9911,0,0,0-21.9194,0L20.9512,63.189A21.9808,21.9808,0,0,0,10,82.1734V182.7a21.97,21.97,0,0,0,10.958,18.981l87.0656,50.2633a21.9735,21.9735,0,0,0,21.9194,0l87.0656-50.2633a21.9772,21.9772,0,0,0,10.958-18.981V82.1734A21.98,21.98,0,0,0,216.995,63.189Z" style="fill: url(#linear-gradient)"></path><path id="fullLogo-2" data-name="fullLogo" d="M319.0522,155.21a21.0217,21.0217,0,0,0,15.5256-15.4167,50.6778,50.6778,0,0,0,.704-11.509c-.034-.98-.0544-1.9555-.0544-2.9316V93.5939h15.5289v31.7586q0,1.36.0544,2.7684.051,3.6357-.1088,7.4108a48.7974,48.7974,0,0,1-.98,7.7338A36.5643,36.5643,0,0,1,314.2738,171.28h-11.4V155.754h11.4A21.1137,21.1137,0,0,0,319.0522,155.21Z" style="fill: #fff"></path><path id="fullLogo-3" data-name="fullLogo" d="M404.101,158.3592l-6.9483,12.9238H379.5083L421.31,93.5973h16.2874l41.8017,77.6857H461.7547l-6.9482-12.9238Zm25.3544-47.07-17.005,31.49h33.9863Z" style="fill: #fff"></path><path id="fullLogo-4" data-name="fullLogo" d="M512.2255,134.3107a23.1269,23.1269,0,0,1-4.8328-29.1262,23.8677,23.8677,0,0,1,8.4413-8.4412,22.4464,22.4464,0,0,1,11.6994-3.1494H592.251V109.12H527.5334a7.7848,7.7848,0,0,0-7.7644,7.7645,7.5023,7.5023,0,0,0,2.5,5.5912,9.5366,9.5366,0,0,0,4.9927,1.925,58.6014,58.6014,0,0,0,6.7849.34h1.36q9.1215.1632,18.243.0544h1.7923q4.4485-.0545,8.8426-.1632c1.02,0,2.0406-.017,3.0949-.0545a56.579,56.579,0,0,1,7.6829.34,25.05,25.05,0,0,1,8.06,2.3331,22.71,22.71,0,0,1,12.38,16.3418,23.8975,23.8975,0,0,1-.34,10.37,22.787,22.787,0,0,1-5.1594,9.6078,23.6031,23.6031,0,0,1-7.8223,5.7,22.4481,22.4481,0,0,1-9.3391,2.01H506.8281V155.754h66.0372a7.6634,7.6634,0,0,0,7.3836-9.23,7.28,7.28,0,0,0-3.9622-5.3192,19.63,19.63,0,0,0-8.6317-1.0883q-1.52.0577-3.04.0544-4.4484.1122-9.0671.1633h-1.7889q-9.2847.1632-18.6749-.0545H533.89a57.3745,57.3745,0,0,1-10.7234-.84A23.8977,23.8977,0,0,1,512.2255,134.3107Z" style="fill: #fff"></path><polygon id="fullLogo-5" data-name="fullLogo" points="640.651 171.28 632.886 171.28 625.125 171.28 625.125 93.594 632.886 93.594 640.651 93.594 710.572 93.594 710.572 109.12 640.651 109.12 640.651 124.699 695.046 124.699 695.046 140.225 640.651 140.225 640.651 155.754 710.572 155.754 710.572 171.28 640.651 171.28" style="fill: #fff"></polygon><path id="fullLogo-6" data-name="fullLogo" d="M739.2218,140.225V124.7a30.7969,30.7969,0,0,1,9.1215-21.9841q9.4989-9.1215,21.933-9.1215h28.5q12.4307,0,21.9874,9.1215a30.7571,30.7571,0,0,1,9.0637,20.6815h-15.58a15.7607,15.7607,0,0,0-5.02-10.203,14.8009,14.8009,0,0,0-10.4513-4.0812h-28.5a15.5664,15.5664,0,0,0-15.5255,15.58v15.5255a15.5664,15.5664,0,0,0,15.5255,15.529h28.5a14.791,14.791,0,0,0,10.4513-4.0812,15.71,15.71,0,0,0,5.02-10.135h15.58a30.7408,30.7408,0,0,1-9.0636,20.63q-9.5533,9.1215-21.9874,9.1215h-28.5q-12.4307,0-21.933-9.1215Q739.2217,152.6592,739.2218,140.225Z" style="fill: #fff"></path><rect id="fullLogo-7" data-name="fullLogo" x="858.4745" y="93.5939" width="15.5255" height="77.6856" style="fill: #fff"></rect></g></svg>