<svg version="1.1" viewBox="0.0 0.0 600.0 371.0" fill="none" stroke="none" stroke-linecap="square" stroke-miterlimit="10" width="600" height="371" xmlns:xlink="http://www.w3.org/1999/xlink" xmlns="http://www.w3.org/2000/svg"><path fill="#ffffff" d="M0 0L600.0 0L600.0 371.0L0 371.0L0 0Z" fill-rule="nonzero"/><path stroke="#333333" stroke-width="1.0" stroke-linecap="butt" d="M48.5 300.5L581.5 300.5" fill-rule="nonzero"/><path stroke="#cccccc" stroke-width="1.0" stroke-linecap="butt" d="M48.5 258.5L581.5 258.5" fill-rule="nonzero"/><path stroke="#cccccc" stroke-width="1.0" stroke-linecap="butt" d="M48.5 215.5L581.5 215.5" fill-rule="nonzero"/><path stroke="#cccccc" stroke-width="1.0" stroke-linecap="butt" d="M48.5 173.5L581.5 173.5" fill-rule="nonzero"/><path stroke="#cccccc" stroke-width="1.0" stroke-linecap="butt" d="M48.5 130.5L581.5 130.5" fill-rule="nonzero"/><path stroke="#cccccc" stroke-width="1.0" stroke-linecap="butt" d="M48.5 88.5L581.5 88.5" fill-rule="nonzero"/><clipPath id="id_0"><path d="M48.55 88.28333L581.45 88.28333L581.45 300.45L48.55 300.45L48.55 88.28333Z" clip-rule="nonzero"/></clipPath><path stroke="#000000" stroke-width="2.0" stroke-linecap="butt" stroke-opacity="0.0" clip-path="url(#id_0)" d="M104.0 300.0L84.0 300.0L84.0 251.0C84.0 249.89543 84.89543 249.0 86.0 249.0L102.0 249.0C103.10457 249.0 104.0 249.89543 104.0 251.0Z" fill-rule="nonzero"/><path fill="#4285f4" clip-path="url(#id_0)" d="M104.0 300.0L84.0 300.0L84.0 251.0C84.0 249.89543 84.89543 249.0 86.0 249.0L102.0 249.0C103.10457 249.0 104.0 249.89543 104.0 251.0Z" fill-rule="nonzero"/><path stroke="#000000" stroke-width="2.0" stroke-linecap="butt" stroke-opacity="0.0" clip-path="url(#id_0)" d="M203.0 300.0L183.0 300.0L183.0 230.0C183.0 228.89543 183.89543 228.0 185.0 228.0L201.0 228.0C202.10457 228.0 203.0 228.89543 203.0 230.0Z" fill-rule="nonzero"/><path fill="#4285f4" clip-path="url(#id_0)" d="M203.0 300.0L183.0 300.0L183.0 230.0C183.0 228.89543 183.89543 228.0 185.0 228.0L201.0 228.0C202.10457 228.0 203.0 228.89543 203.0 230.0Z" fill-rule="nonzero"/><path stroke="#000000" stroke-width="2.0" stroke-linecap="butt" stroke-opacity="0.0" clip-path="url(#id_0)" d="M303.0 300.0L283.0 300.0L283.0 260.0C283.0 258.89542 283.89542 258.0 285.0 258.0L301.0 258.0C302.10458 258.0 303.0 258.89542 303.0 260.0Z" fill-rule="nonzero"/><path fill="#4285f4" clip-path="url(#id_0)" d="M303.0 300.0L283.0 300.0L283.0 260.0C283.0 258.89542 283.89542 258.0 285.0 258.0L301.0 258.0C302.10458 258.0 303.0 258.89542 303.0 260.0Z" fill-rule="nonzero"/><path stroke="#000000" stroke-width="2.0" stroke-linecap="butt" stroke-opacity="0.0" clip-path="url(#id_0)" d="M403.0 300.0L383.0 300.0L383.0 123.0C383.0 121.89543 383.89542 121.0 385.0 121.0L401.0 121.0C402.10458 121.0 403.0 121.89543 403.0 123.0Z" fill-rule="nonzero"/><path fill="#4285f4" clip-path="url(#id_0)" d="M403.0 300.0L383.0 300.0L383.0 123.0C383.0 121.89543 383.89542 121.0 385.0 121.0L401.0 121.0C402.10458 121.0 403.0 121.89543 403.0 123.0Z" fill-rule="nonzero"/><path stroke="#000000" stroke-width="2.0" stroke-linecap="butt" stroke-opacity="0.0" clip-path="url(#id_0)" d="M502.0 300.0L482.0 300.0L482.0 268.0C482.0 266.89542 482.89542 266.0 484.0 266.0L500.0 266.0C501.10458 266.0 502.0 266.89542 502.0 268.0Z" fill-rule="nonzero"/><path fill="#4285f4" clip-path="url(#id_0)" d="M502.0 300.0L482.0 300.0L482.0 268.0C482.0 266.89542 482.89542 266.0 484.0 266.0L500.0 266.0C501.10458 266.0 502.0 266.89542 502.0 268.0Z" fill-rule="nonzero"/><path stroke="#000000" stroke-width="2.0" stroke-linecap="butt" stroke-opacity="0.0" clip-path="url(#id_0)" d="M126.0 300.0L106.0 300.0L106.0 277.0C106.0 275.89542 106.89543 275.0 108.0 275.0L124.0 275.0C125.10457 275.0 126.0 275.89542 126.0 277.0Z" fill-rule="nonzero"/><path fill="#ea4335" clip-path="url(#id_0)" d="M126.0 300.0L106.0 300.0L106.0 277.0C106.0 275.89542 106.89543 275.0 108.0 275.0L124.0 275.0C125.10457 275.0 126.0 275.89542 126.0 277.0Z" fill-rule="nonzero"/><path stroke="#000000" stroke-width="2.0" stroke-linecap="butt" stroke-opacity="0.0" clip-path="url(#id_0)" d="M225.0 300.0L205.0 300.0L205.0 212.0C205.0 210.89543 205.89543 210.0 207.0 210.0L223.0 210.0C224.10457 210.0 225.0 210.89543 225.0 212.0Z" fill-rule="nonzero"/><path fill="#ea4335" clip-path="url(#id_0)" d="M225.0 300.0L205.0 300.0L205.0 212.0C205.0 210.89543 205.89543 210.0 207.0 210.0L223.0 210.0C224.10457 210.0 225.0 210.89543 225.0 212.0Z" fill-rule="nonzero"/><path stroke="#000000" stroke-width="2.0" stroke-linecap="butt" stroke-opacity="0.0" clip-path="url(#id_0)" d="M325.0 300.0L305.0 300.0L305.0 266.0C305.0 264.89542 305.89542 264.0 307.0 264.0L323.0 264.0C324.10458 264.0 325.0 264.89542 325.0 266.0Z" fill-rule="nonzero"/><path fill="#ea4335" clip-path="url(#id_0)" d="M325.0 300.0L305.0 300.0L305.0 266.0C305.0 264.89542 305.89542 264.0 307.0 264.0L323.0 264.0C324.10458 264.0 325.0 264.89542 325.0 266.0Z" fill-rule="nonzero"/><path stroke="#000000" stroke-width="2.0" stroke-linecap="butt" stroke-opacity="0.0" clip-path="url(#id_0)" d="M425.0 300.0L405.0 300.0L405.0 200.0C405.0 198.89543 405.89542 198.0 407.0 198.0L423.0 198.0C424.10458 198.0 425.0 198.89543 425.0 200.0Z" fill-rule="nonzero"/><path fill="#ea4335" clip-path="url(#id_0)" d="M425.0 300.0L405.0 300.0L405.0 200.0C405.0 198.89543 405.89542 198.0 407.0 198.0L423.0 198.0C424.10458 198.0 425.0 198.89543 425.0 200.0Z" fill-rule="nonzero"/><path stroke="#000000" stroke-width="2.0" stroke-linecap="butt" stroke-opacity="0.0" clip-path="url(#id_0)" d="M524.0 300.0L504.0 300.0L504.0 263.0C504.0 261.89542 504.89542 261.0 506.0 261.0L522.0 261.0C523.10455 261.0 524.0 261.89542 524.0 263.0Z" fill-rule="nonzero"/><path fill="#ea4335" clip-path="url(#id_0)" d="M524.0 300.0L504.0 300.0L504.0 263.0C504.0 261.89542 504.89542 261.0 506.0 261.0L522.0 261.0C523.10455 261.0 524.0 261.89542 524.0 263.0Z" fill-rule="nonzero"/><path stroke="#000000" stroke-width="2.0" stroke-linecap="butt" stroke-opacity="0.0" clip-path="url(#id_0)" d="M148.0 300.0L128.0 300.0L128.0 281.0C128.0 279.89542 128.89543 279.0 130.0 279.0L146.0 279.0C147.10457 279.0 148.0 279.89542 148.0 281.0Z" fill-rule="nonzero"/><path fill="#fbbc04" clip-path="url(#id_0)" d="M148.0 300.0L128.0 300.0L128.0 281.0C128.0 279.89542 128.89543 279.0 130.0 279.0L146.0 279.0C147.10457 279.0 148.0 279.89542 148.0 281.0Z" fill-rule="nonzero"/><path stroke="#000000" stroke-width="2.0" stroke-linecap="butt" stroke-opacity="0.0" clip-path="url(#id_0)" d="M247.0 300.0L227.0 300.0L227.0 237.0C227.0 235.89543 227.89543 235.0 229.0 235.0L245.0 235.0C246.10457 235.0 247.0 235.89543 247.0 237.0Z" fill-rule="nonzero"/><path fill="#fbbc04" clip-path="url(#id_0)" d="M247.0 300.0L227.0 300.0L227.0 237.0C227.0 235.89543 227.89543 235.0 229.0 235.0L245.0 235.0C246.10457 235.0 247.0 235.89543 247.0 237.0Z" fill-rule="nonzero"/><path stroke="#000000" stroke-width="2.0" stroke-linecap="butt" stroke-opacity="0.0" clip-path="url(#id_0)" d="M347.0 300.0L327.0 300.0L327.0 272.0C327.0 270.89542 327.89542 270.0 329.0 270.0L345.0 270.0C346.10458 270.0 347.0 270.89542 347.0 272.0Z" fill-rule="nonzero"/><path fill="#fbbc04" clip-path="url(#id_0)" d="M347.0 300.0L327.0 300.0L327.0 272.0C327.0 270.89542 327.89542 270.0 329.0 270.0L345.0 270.0C346.10458 270.0 347.0 270.89542 347.0 272.0Z" fill-rule="nonzero"/><path stroke="#000000" stroke-width="2.0" stroke-linecap="butt" stroke-opacity="0.0" clip-path="url(#id_0)" d="M447.0 300.0L427.0 300.0L427.0 221.0C427.0 219.89543 427.89542 219.0 429.0 219.0L445.0 219.0C446.10458 219.0 447.0 219.89543 447.0 221.0Z" fill-rule="nonzero"/><path fill="#fbbc04" clip-path="url(#id_0)" d="M447.0 300.0L427.0 300.0L427.0 221.0C427.0 219.89543 427.89542 219.0 429.0 219.0L445.0 219.0C446.10458 219.0 447.0 219.89543 447.0 221.0Z" fill-rule="nonzero"/><path stroke="#000000" stroke-width="2.0" stroke-linecap="butt" stroke-opacity="0.0" clip-path="url(#id_0)" d="M546.0 300.0L526.0 300.0L526.0 266.0C526.0 264.89542 526.89545 264.0 528.0 264.0L544.0 264.0C545.10455 264.0 546.0 264.89542 546.0 266.0Z" fill-rule="nonzero"/><path fill="#fbbc04" clip-path="url(#id_0)" d="M546.0 300.0L526.0 300.0L526.0 266.0C526.0 264.89542 526.89545 264.0 528.0 264.0L544.0 264.0C545.10455 264.0 546.0 264.89542 546.0 266.0Z" fill-rule="nonzero"/><path fill="#000000" d="M269.54688 346.6844L270.60938 346.59064Q270.6875 347.2469 270.96875 347.65314Q271.25 348.0594 271.82812 348.325Q272.42188 348.575 273.15625 348.575Q273.79688 348.575 274.29688 348.3875Q274.79688 348.1844 275.03125 347.85626Q275.28125 347.5125 275.28125 347.1219Q275.28125 346.71564 275.04688 346.41876Q274.8125 346.10626 274.28125 345.90314Q273.92188 345.7625 272.73438 345.48126Q271.5625 345.2 271.09375 344.95Q270.46875 344.6219 270.17188 344.15314Q269.875 343.66876 269.875 343.075Q269.875 342.4344 270.23438 341.8719Q270.60938 341.29376 271.3125 341.0125Q272.03125 340.71564 272.89062 340.71564Q273.84375 340.71564 274.57812 341.02814Q275.3125 341.325 275.70312 341.9344Q276.09375 342.52814 276.125 343.27814L275.03125 343.35626Q274.9375 342.54376 274.42188 342.1375Q273.92188 341.71564 272.9375 341.71564Q271.90625 341.71564 271.4375 342.09064Q270.96875 342.46564 270.96875 342.9969Q270.96875 343.46564 271.29688 343.7625Q271.625 344.0594 273.0 344.3719Q274.39062 344.6844 274.90625 344.91876Q275.65625 345.27814 276.01562 345.8094Q276.375 346.325 276.375 347.02814Q276.375 347.71564 275.98438 348.325Q275.59375 348.91876 274.85938 349.2625Q274.125 349.59064 273.20312 349.59064Q272.03125 349.59064 271.23438 349.2625Q270.45312 348.91876 270.0 348.23126Q269.5625 347.54376 269.54688 346.6844ZM277.79688 342.075L277.79688 340.85626L278.85938 340.85626L278.85938 342.075L277.79688 342.075ZM277.79688 349.45L277.79688 343.23126L278.85938 343.23126L278.85938 349.45L277.79688 349.45ZM280.79688 349.45L280.79688 343.23126L281.73438 343.23126L281.73438 344.10626Q282.03125 343.6375 282.51562 343.3719Q283.0 343.09064 283.625 343.09064Q284.3125 343.09064 284.75 343.3719Q285.20312 343.65314 285.375 344.16876Q286.125 343.09064 287.29688 343.09064Q288.23438 343.09064 288.71875 343.60626Q289.21875 344.10626 289.21875 345.1844L289.21875 349.45L288.17188 349.45L288.17188 345.52814Q288.17188 344.90314 288.0625 344.6219Q287.96875 344.34064 287.70312 344.16876Q287.4375 343.9969 287.0625 343.9969Q286.40625 343.9969 285.96875 344.4344Q285.54688 344.8719 285.54688 345.84064L285.54688 349.45L284.48438 349.45L284.48438 345.40314Q284.48438 344.7 284.21875 344.35626Q283.96875 343.9969 283.39062 343.9969Q282.9375 343.9969 282.5625 344.23126Q282.1875 344.46564 282.01562 344.91876Q281.84375 345.3719 281.84375 346.21564L281.84375 349.45L280.79688 349.45ZM291.79688 351.84064L291.79688 343.23126L292.75 343.23126L292.75 344.02814Q293.09375 343.5594 293.51562 343.325Q293.95312 343.09064 294.5625 343.09064Q295.35938 343.09064 295.96875 343.4969Q296.57812 343.90314 296.875 344.65314Q297.1875 345.40314 297.1875 346.29376Q297.1875 347.2469 296.84375 348.0125Q296.51562 348.77814 295.85938 349.1844Q295.20312 349.59064 294.48438 349.59064Q293.95312 349.59064 293.53125 349.3719Q293.10938 349.1375 292.84375 348.8094L292.84375 351.84064L291.79688 351.84064ZM292.75 346.3719Q292.75 347.575 293.23438 348.15314Q293.71875 348.71564 294.40625 348.71564Q295.10938 348.71564 295.60938 348.1219Q296.10938 347.52814 296.10938 346.27814Q296.10938 345.09064 295.625 344.5125Q295.14062 343.91876 294.45312 343.91876Q293.78125 343.91876 293.26562 344.54376Q292.75 345.16876 292.75 346.3719ZM298.76562 349.45L298.76562 340.85626L299.82812 340.85626L299.82812 349.45L298.76562 349.45ZM301.79688 342.075L301.79688 340.85626L302.85938 340.85626L302.85938 342.075L301.79688 342.075ZM301.79688 349.45L301.79688 343.23126L302.85938 343.23126L302.85938 349.45L301.79688 349.45ZM305.04688 349.45L305.04688 344.04376L304.10938 344.04376L304.10938 343.23126L305.04688 343.23126L305.04688 342.5594Q305.04688 341.9344 305.15625 341.6375Q305.3125 341.21564 305.6875 340.96564Q306.07812 340.71564 306.76562 340.71564Q307.21875 340.71564 307.75 340.825L307.59375 341.73126Q307.26562 341.6844 306.96875 341.6844Q306.48438 341.6844 306.28125 341.8875Q306.09375 342.09064 306.09375 342.65314L306.09375 343.23126L307.3125 343.23126L307.3125 344.04376L306.09375 344.04376L306.09375 349.45L305.04688 349.45ZM307.79688 342.075L307.79688 340.85626L308.85938 340.85626L308.85938 342.075L307.79688 342.075ZM307.79688 349.45L307.79688 343.23126L308.85938 343.23126L308.85938 349.45L307.79688 349.45ZM315.04688 347.45L316.14062 347.575Q315.89062 348.52814 315.1875 349.0594Q314.48438 349.59064 313.40625 349.59064Q312.04688 349.59064 311.23438 348.7469Q310.4375 347.90314 310.4375 346.3875Q310.4375 344.825 311.25 343.96564Q312.0625 343.09064 313.34375 343.09064Q314.59375 343.09064 315.375 343.9344Q316.17188 344.77814 316.17188 346.325Q316.17188 346.41876 316.17188 346.60626L311.53125 346.60626Q311.59375 347.6375 312.10938 348.1844Q312.625 348.71564 313.40625 348.71564Q313.98438 348.71564 314.39062 348.41876Q314.8125 348.10626 315.04688 347.45ZM311.59375 345.7469L315.0625 345.7469Q315.0 344.95 314.67188 344.5594Q314.15625 343.95 313.35938 343.95Q312.625 343.95 312.125 344.4344Q311.64062 344.91876 311.59375 345.7469ZM321.82812 349.45L321.82812 348.66876Q321.23438 349.59064 320.09375 349.59064Q319.34375 349.59064 318.71875 349.1844Q318.09375 348.7625 317.75 348.02814Q317.40625 347.29376 317.40625 346.34064Q317.40625 345.41876 317.71875 344.65314Q318.03125 343.8875 318.65625 343.4969Q319.28125 343.09064 320.04688 343.09064Q320.60938 343.09064 321.04688 343.325Q321.48438 343.5594 321.76562 343.9344L321.76562 340.85626L322.8125 340.85626L322.8125 349.45L321.82812 349.45ZM318.5 346.34064Q318.5 347.54376 319.0 348.1375Q319.5 348.71564 320.1875 348.71564Q320.875 348.71564 321.35938 348.15314Q321.84375 347.59064 321.84375 346.4344Q321.84375 345.15314 321.34375 344.5594Q320.85938 343.96564 320.14062 343.96564Q319.4375 343.96564 318.96875 344.54376Q318.5 345.10626 318.5 346.34064ZM327.92188 349.45L327.92188 340.85626L329.07812 340.85626L333.59375 347.60626L333.59375 340.85626L334.6875 340.85626L334.6875 349.45L333.51562 349.45L329.0 342.7L329.0 349.45L327.92188 349.45ZM340.85938 348.6844Q340.26562 349.1844 339.71875 349.3875Q339.1875 349.59064 338.5625 349.59064Q337.53125 349.59064 336.98438 349.09064Q336.4375 348.59064 336.4375 347.8094Q336.4375 347.35626 336.64062 346.98126Q336.84375 346.59064 337.1875 346.3719Q337.53125 346.1375 337.95312 346.02814Q338.25 345.9344 338.89062 345.85626Q340.15625 345.71564 340.76562 345.4969Q340.76562 345.27814 340.76562 345.23126Q340.76562 344.575 340.46875 344.3094Q340.0625 343.96564 339.26562 343.96564Q338.53125 343.96564 338.17188 344.23126Q337.8125 344.48126 337.64062 345.1375L336.60938 344.9969Q336.75 344.34064 337.07812 343.9344Q337.40625 343.52814 338.01562 343.3094Q338.625 343.09064 339.42188 343.09064Q340.21875 343.09064 340.71875 343.27814Q341.21875 343.46564 341.45312 343.7469Q341.6875 344.02814 341.78125 344.46564Q341.82812 344.73126 341.82812 345.4344L341.82812 346.84064Q341.82812 348.3094 341.89062 348.7Q341.96875 349.09064 342.17188 349.45L341.0625 349.45Q340.90625 349.1219 340.85938 348.6844ZM340.76562 346.325Q340.1875 346.5594 339.04688 346.73126Q338.39062 346.825 338.125 346.95Q337.85938 347.0594 337.70312 347.27814Q337.5625 347.4969 337.5625 347.77814Q337.5625 348.2 337.875 348.48126Q338.20312 348.7625 338.8125 348.7625Q339.42188 348.7625 339.89062 348.4969Q340.375 348.23126 340.59375 347.7625Q340.76562 347.40314 340.76562 346.71564L340.76562 346.325ZM343.79688 349.45L343.79688 343.23126L344.73438 343.23126L344.73438 344.10626Q345.03125 343.6375 345.51562 343.3719Q346.0 343.09064 346.625 343.09064Q347.3125 343.09064 347.75 343.3719Q348.20312 343.65314 348.375 344.16876Q349.125 343.09064 350.29688 343.09064Q351.23438 343.09064 351.71875 343.60626Q352.21875 344.10626 352.21875 345.1844L352.21875 349.45L351.17188 349.45L351.17188 345.52814Q351.17188 344.90314 351.0625 344.6219Q350.96875 344.34064 350.70312 344.16876Q350.4375 343.9969 350.0625 343.9969Q349.40625 343.9969 348.96875 344.4344Q348.54688 344.8719 348.54688 345.84064L348.54688 349.45L347.48438 349.45L347.48438 345.40314Q347.48438 344.7 347.21875 344.35626Q346.96875 343.9969 346.39062 343.9969Q345.9375 343.9969 345.5625 344.23126Q345.1875 344.46564 345.01562 344.91876Q344.84375 345.3719 344.84375 346.21564L344.84375 349.45L343.79688 349.45ZM359.04688 347.45L360.14062 347.575Q359.89062 348.52814 359.1875 349.0594Q358.48438 349.59064 357.40625 349.59064Q356.04688 349.59064 355.23438 348.7469Q354.4375 347.90314 354.4375 346.3875Q354.4375 344.825 355.25 343.96564Q356.0625 343.09064 357.34375 343.09064Q358.59375 343.09064 359.375 343.9344Q360.17188 344.77814 360.17188 346.325Q360.17188 346.41876 360.17188 346.60626L355.53125 346.60626Q355.59375 347.6375 356.10938 348.1844Q356.625 348.71564 357.40625 348.71564Q357.98438 348.71564 358.39062 348.41876Q358.8125 348.10626 359.04688 347.45ZM355.59375 345.7469L359.0625 345.7469Q359.0 344.95 358.67188 344.5594Q358.15625 343.95 357.35938 343.95Q356.625 343.95 356.125 344.4344Q355.64062 344.91876 355.59375 345.7469Z" fill-rule="nonzero"/><path fill="#000000" d="M19.05 300.21564Q19.05 298.6844 19.3625 297.7625Q19.675 296.825 20.284374 296.325Q20.909374 295.825 21.846874 295.825Q22.534374 295.825 23.05 296.10626Q23.58125 296.3875 23.925 296.91876Q24.26875 297.4344 24.45625 298.1844Q24.64375 298.9344 24.64375 300.21564Q24.64375 301.73126 24.33125 302.65314Q24.034374 303.575 23.409374 304.09064Q22.8 304.59064 21.846874 304.59064Q20.6125 304.59064 19.89375 303.7Q19.05 302.6375 19.05 300.21564ZM20.128124 300.21564Q20.128124 302.325 20.628124 303.02814Q21.128124 303.73126 21.846874 303.73126Q22.58125 303.73126 23.065624 303.02814Q23.565624 302.325 23.565624 300.21564Q23.565624 298.09064 23.065624 297.40314Q22.58125 296.7 21.83125 296.7Q21.1125 296.7 20.675 297.3094Q20.128124 298.09064 20.128124 300.21564ZM26.64375 304.45L26.64375 303.2469L27.846874 303.2469L27.846874 304.45L26.64375 304.45ZM29.05 300.21564Q29.05 298.6844 29.3625 297.7625Q29.675 296.825 30.284374 296.325Q30.909374 295.825 31.846874 295.825Q32.534374 295.825 33.05 296.10626Q33.58125 296.3875 33.925 296.91876Q34.26875 297.4344 34.45625 298.1844Q34.64375 298.9344 34.64375 300.21564Q34.64375 301.73126 34.33125 302.65314Q34.034374 303.575 33.409374 304.09064Q32.8 304.59064 31.846874 304.59064Q30.6125 304.59064 29.89375 303.7Q29.05 302.6375 29.05 300.21564ZM30.128124 300.21564Q30.128124 302.325 30.628124 303.02814Q31.128124 303.73126 31.846874 303.73126Q32.58125 303.73126 33.065624 303.02814Q33.565624 302.325 33.565624 300.21564Q33.565624 298.09064 33.065624 297.40314Q32.58125 296.7 31.83125 296.7Q31.1125 296.7 30.675 297.3094Q30.128124 298.09064 30.128124 300.21564ZM36.05 300.21564Q36.05 298.6844 36.3625 297.7625Q36.675 296.825 37.284374 296.325Q37.909374 295.825 38.846874 295.825Q39.534374 295.825 40.05 296.10626Q40.58125 296.3875 40.925 296.91876Q41.26875 297.4344 41.45625 298.1844Q41.64375 298.9344 41.64375 300.21564Q41.64375 301.73126 41.33125 302.65314Q41.034374 303.575 40.409374 304.09064Q39.8 304.59064 38.846874 304.59064Q37.6125 304.59064 36.89375 303.7Q36.05 302.6375 36.05 300.21564ZM37.128124 300.21564Q37.128124 302.325 37.628124 303.02814Q38.128124 303.73126 38.846874 303.73126Q39.58125 303.73126 40.065624 303.02814Q40.565624 302.325 40.565624 300.21564Q40.565624 298.09064 40.065624 297.40314Q39.58125 296.7 38.83125 296.7Q38.1125 296.7 37.675 297.3094Q37.128124 298.09064 37.128124 300.21564Z" fill-rule="nonzero"/><path fill="#000000" d="M19.05 257.7823Q19.05 256.25104 19.3625 255.32916Q19.675 254.39166 20.284374 253.89166Q20.909374 253.39166 21.846874 253.39166Q22.534374 253.39166 23.05 253.67291Q23.58125 253.95416 23.925 254.48541Q24.26875 255.00104 24.45625 255.75104Q24.64375 256.50104 24.64375 257.7823Q24.64375 259.2979 24.33125 260.2198Q24.034374 261.14166 23.409374 261.6573Q22.8 262.1573 21.846874 262.1573Q20.6125 262.1573 19.89375 261.26666Q19.05 260.20416 19.05 257.7823ZM20.128124 257.7823Q20.128124 259.89166 20.628124 260.5948Q21.128124 261.2979 21.846874 261.2979Q22.58125 261.2979 23.065624 260.5948Q23.565624 259.89166 23.565624 257.7823Q23.565624 255.65729 23.065624 254.96979Q22.58125 254.26666 21.83125 254.26666Q21.1125 254.26666 20.675 254.87604Q20.128124 255.65729 20.128124 257.7823ZM26.64375 262.01666L26.64375 260.81354L27.846874 260.81354L27.846874 262.01666L26.64375 262.01666ZM29.05 257.7823Q29.05 256.25104 29.3625 255.32916Q29.675 254.39166 30.284374 253.89166Q30.909374 253.39166 31.846874 253.39166Q32.534374 253.39166 33.05 253.67291Q33.58125 253.95416 33.925 254.48541Q34.26875 255.00104 34.45625 255.75104Q34.64375 256.50104 34.64375 257.7823Q34.64375 259.2979 34.33125 260.2198Q34.034374 261.14166 33.409374 261.6573Q32.8 262.1573 31.846874 262.1573Q30.6125 262.1573 29.89375 261.26666Q29.05 260.20416 29.05 257.7823ZM30.128124 257.7823Q30.128124 259.89166 30.628124 260.5948Q31.128124 261.2979 31.846874 261.2979Q32.58125 261.2979 33.065624 260.5948Q33.565624 259.89166 33.565624 257.7823Q33.565624 255.65729 33.065624 254.96979Q32.58125 254.26666 31.83125 254.26666Q31.1125 254.26666 30.675 254.87604Q30.128124 255.65729 30.128124 257.7823ZM36.05 259.76666L37.159374 259.6729Q37.284374 260.4854 37.721874 260.89166Q38.175 261.2979 38.815624 261.2979Q39.565624 261.2979 40.096874 260.7198Q40.628124 260.14166 40.628124 259.20416Q40.628124 258.2979 40.1125 257.7823Q39.6125 257.25104 38.784374 257.25104Q38.284374 257.25104 37.8625 257.4854Q37.45625 257.7198 37.221874 258.07916L36.2375 257.95416L37.065624 253.54791L41.346874 253.54791L41.346874 254.54791L37.909374 254.54791L37.45625 256.8604Q38.221874 256.31354 39.065624 256.31354Q40.190624 256.31354 40.95625 257.0948Q41.7375 257.87604 41.7375 259.1104Q41.7375 260.26666 41.065624 261.12604Q40.2375 262.1573 38.815624 262.1573Q37.64375 262.1573 36.89375 261.50104Q36.159374 260.8448 36.05 259.76666Z" fill-rule="nonzero"/><path fill="#000000" d="M19.05 215.34895Q19.05 213.8177 19.3625 212.89583Q19.675 211.95833 20.284374 211.45833Q20.909374 210.95833 21.846874 210.95833Q22.534374 210.95833 23.05 211.23958Q23.58125 211.52083 23.925 212.05208Q24.26875 212.5677 24.45625 213.3177Q24.64375 214.0677 24.64375 215.34895Q24.64375 216.86458 24.33125 217.78645Q24.034374 218.70833 23.409374 219.22395Q22.8 219.72395 21.846874 219.72395Q20.6125 219.72395 19.89375 218.83333Q19.05 217.77083 19.05 215.34895ZM20.128124 215.34895Q20.128124 217.45833 20.628124 218.16145Q21.128124 218.86458 21.846874 218.86458Q22.58125 218.86458 23.065624 218.16145Q23.565624 217.45833 23.565624 215.34895Q23.565624 213.22395 23.065624 212.53645Q22.58125 211.83333 21.83125 211.83333Q21.1125 211.83333 20.675 212.4427Q20.128124 213.22395 20.128124 215.34895ZM26.64375 219.58333L26.64375 218.3802L27.846874 218.3802L27.846874 219.58333L26.64375 219.58333ZM33.01875 219.58333L31.971874 219.58333L31.971874 212.86458Q31.58125 213.22395 30.95625 213.59895Q30.346874 213.95833 29.8625 214.1302L29.8625 213.11458Q30.7375 212.6927 31.39375 212.11458Q32.065624 211.52083 32.346874 210.95833L33.01875 210.95833L33.01875 219.58333ZM36.05 215.34895Q36.05 213.8177 36.3625 212.89583Q36.675 211.95833 37.284374 211.45833Q37.909374 210.95833 38.846874 210.95833Q39.534374 210.95833 40.05 211.23958Q40.58125 211.52083 40.925 212.05208Q41.26875 212.5677 41.45625 213.3177Q41.64375 214.0677 41.64375 215.34895Q41.64375 216.86458 41.33125 217.78645Q41.034374 218.70833 40.409374 219.22395Q39.8 219.72395 38.846874 219.72395Q37.6125 219.72395 36.89375 218.83333Q36.05 217.77083 36.05 215.34895ZM37.128124 215.34895Q37.128124 217.45833 37.628124 218.16145Q38.128124 218.86458 38.846874 218.86458Q39.58125 218.86458 40.065624 218.16145Q40.565624 217.45833 40.565624 215.34895Q40.565624 213.22395 40.065624 212.53645Q39.58125 211.83333 38.83125 211.83333Q38.1125 211.83333 37.675 212.4427Q37.128124 213.22395 37.128124 215.34895Z" fill-rule="nonzero"/><path fill="#000000" d="M19.05 172.91562Q19.05 171.38437 19.3625 170.4625Q19.675 169.525 20.284374 169.025Q20.909374 168.525 21.846874 168.525Q22.534374 168.525 23.05 168.80624Q23.58125 169.0875 23.925 169.61874Q24.26875 170.13437 24.45625 170.88437Q24.64375 171.63437 24.64375 172.91562Q24.64375 174.43124 24.33125 175.35312Q24.034374 176.275 23.409374 176.79062Q22.8 177.29062 21.846874 177.29062Q20.6125 177.29062 19.89375 176.4Q19.05 175.3375 19.05 172.91562ZM20.128124 172.91562Q20.128124 175.025 20.628124 175.72812Q21.128124 176.43124 21.846874 176.43124Q22.58125 176.43124 23.065624 175.72812Q23.565624 175.025 23.565624 172.91562Q23.565624 170.79062 23.065624 170.10312Q22.58125 169.4 21.83125 169.4Q21.1125 169.4 20.675 170.00937Q20.128124 170.79062 20.128124 172.91562ZM26.64375 177.15L26.64375 175.94687L27.846874 175.94687L27.846874 177.15L26.64375 177.15ZM33.01875 177.15L31.971874 177.15L31.971874 170.43124Q31.58125 170.79062 30.95625 171.16562Q30.346874 171.525 29.8625 171.69687L29.8625 170.68124Q30.7375 170.25937 31.39375 169.68124Q32.065624 169.0875 32.346874 168.525L33.01875 168.525L33.01875 177.15ZM36.05 174.9L37.159374 174.80624Q37.284374 175.61874 37.721874 176.025Q38.175 176.43124 38.815624 176.43124Q39.565624 176.43124 40.096874 175.85312Q40.628124 175.275 40.628124 174.3375Q40.628124 173.43124 40.1125 172.91562Q39.6125 172.38437 38.784374 172.38437Q38.284374 172.38437 37.8625 172.61874Q37.45625 172.85312 37.221874 173.2125L36.2375 173.0875L37.065624 168.68124L41.346874 168.68124L41.346874 169.68124L37.909374 169.68124L37.45625 171.99374Q38.221874 171.44687 39.065624 171.44687Q40.190624 171.44687 40.95625 172.22812Q41.7375 173.00937 41.7375 174.24374Q41.7375 175.4 41.065624 176.25937Q40.2375 177.29062 38.815624 177.29062Q37.64375 177.29062 36.89375 176.63437Q36.159374 175.97812 36.05 174.9Z" fill-rule="nonzero"/><path fill="#000000" d="M19.05 130.48228Q19.05 128.95103 19.3625 128.02916Q19.675 127.09166 20.284374 126.59166Q20.909374 126.09166 21.846874 126.09166Q22.534374 126.09166 23.05 126.37291Q23.58125 126.65416 23.925 127.18541Q24.26875 127.701035 24.45625 128.45103Q24.64375 129.20103 24.64375 130.48228Q24.64375 131.99791 24.33125 132.91978Q24.034374 133.84166 23.409374 134.35728Q22.8 134.85728 21.846874 134.85728Q20.6125 134.85728 19.89375 133.96666Q19.05 132.90416 19.05 130.48228ZM20.128124 130.48228Q20.128124 132.59166 20.628124 133.29478Q21.128124 133.99791 21.846874 133.99791Q22.58125 133.99791 23.065624 133.29478Q23.565624 132.59166 23.565624 130.48228Q23.565624 128.35728 23.065624 127.669785Q22.58125 126.96666 21.83125 126.96666Q21.1125 126.96666 20.675 127.576035Q20.128124 128.35728 20.128124 130.48228ZM26.64375 134.71666L26.64375 133.51353L27.846874 133.51353L27.846874 134.71666L26.64375 134.71666ZM34.596874 133.70103L34.596874 134.71666L28.909374 134.71666Q28.909374 134.34166 29.034374 133.98228Q29.253124 133.40416 29.721874 132.84166Q30.20625 132.27916 31.1125 131.54478Q32.51875 130.38853 33.003124 129.71666Q33.503124 129.04478 33.503124 128.45103Q33.503124 127.826035 33.05 127.40416Q32.596874 126.96666 31.878124 126.96666Q31.1125 126.96666 30.659374 127.419785Q30.20625 127.87291 30.190624 128.68541L29.1125 128.57603Q29.221874 127.357285 29.940624 126.732285Q30.675 126.09166 31.909374 126.09166Q33.14375 126.09166 33.8625 126.77916Q34.58125 127.46666 34.58125 128.48228Q34.58125 128.99791 34.3625 129.49791Q34.159374 129.98228 33.659374 130.54478Q33.175 131.09166 32.05 132.04478Q31.096874 132.84166 30.815624 133.13853Q30.55 133.41978 30.378124 133.70103L34.596874 133.70103ZM36.05 130.48228Q36.05 128.95103 36.3625 128.02916Q36.675 127.09166 37.284374 126.59166Q37.909374 126.09166 38.846874 126.09166Q39.534374 126.09166 40.05 126.37291Q40.58125 126.65416 40.925 127.18541Q41.26875 127.701035 41.45625 128.45103Q41.64375 129.20103 41.64375 130.48228Q41.64375 131.99791 41.33125 132.91978Q41.034374 133.84166 40.409374 134.35728Q39.8 134.85728 38.846874 134.85728Q37.6125 134.85728 36.89375 133.96666Q36.05 132.90416 36.05 130.48228ZM37.128124 130.48228Q37.128124 132.59166 37.628124 133.29478Q38.128124 133.99791 38.846874 133.99791Q39.58125 133.99791 40.065624 133.29478Q40.565624 132.59166 40.565624 130.48228Q40.565624 128.35728 40.065624 127.669785Q39.58125 126.96666 38.83125 126.96666Q38.1125 126.96666 37.675 127.576035Q37.128124 128.35728 37.128124 130.48228Z" fill-rule="nonzero"/><path fill="#000000" d="M19.05 88.04896Q19.05 86.51771 19.3625 85.59583Q19.675 84.65833 20.284374 84.15833Q20.909374 83.65833 21.846874 83.65833Q22.534374 83.65833 23.05 83.93958Q23.58125 84.22083 23.925 84.75208Q24.26875 85.26771 24.45625 86.01771Q24.64375 86.76771 24.64375 88.04896Q24.64375 89.56458 24.33125 90.48646Q24.034374 91.40833 23.409374 91.92396Q22.8 92.42396 21.846874 92.42396Q20.6125 92.42396 19.89375 91.53333Q19.05 90.47083 19.05 88.04896ZM20.128124 88.04896Q20.128124 90.15833 20.628124 90.86146Q21.128124 91.56458 21.846874 91.56458Q22.58125 91.56458 23.065624 90.86146Q23.565624 90.15833 23.565624 88.04896Q23.565624 85.92396 23.065624 85.23646Q22.58125 84.53333 21.83125 84.53333Q21.1125 84.53333 20.675 85.14271Q20.128124 85.92396 20.128124 88.04896ZM26.64375 92.28333L26.64375 91.08021L27.846874 91.08021L27.846874 92.28333L26.64375 92.28333ZM34.596874 91.26771L34.596874 92.28333L28.909374 92.28333Q28.909374 91.90833 29.034374 91.54896Q29.253124 90.97083 29.721874 90.40833Q30.20625 89.84583 31.1125 89.11146Q32.51875 87.95521 33.003124 87.28333Q33.503124 86.61146 33.503124 86.01771Q33.503124 85.39271 33.05 84.97083Q32.596874 84.53333 31.878124 84.53333Q31.1125 84.53333 30.659374 84.98646Q30.20625 85.43958 30.190624 86.25208L29.1125 86.14271Q29.221874 84.92396 29.940624 84.29896Q30.675 83.65833 31.909374 83.65833Q33.14375 83.65833 33.8625 84.34583Q34.58125 85.03333 34.58125 86.04896Q34.58125 86.56458 34.3625 87.06458Q34.159374 87.54896 33.659374 88.11146Q33.175 88.65833 32.05 89.61146Q31.096874 90.40833 30.815624 90.70521Q30.55 90.98646 30.378124 91.26771L34.596874 91.26771ZM36.05 90.03333L37.159374 89.93958Q37.284374 90.75208 37.721874 91.15833Q38.175 91.56458 38.815624 91.56458Q39.565624 91.56458 40.096874 90.98646Q40.628124 90.40833 40.628124 89.47083Q40.628124 88.56458 40.1125 88.04896Q39.6125 87.51771 38.784374 87.51771Q38.284374 87.51771 37.8625 87.75208Q37.45625 87.98646 37.221874 88.34583L36.2375 88.22083L37.065624 83.81458L41.346874 83.81458L41.346874 84.81458L37.909374 84.81458L37.45625 87.12708Q38.221874 86.58021 39.065624 86.58021Q40.190624 86.58021 40.95625 87.36146Q41.7375 88.14271 41.7375 89.37708Q41.7375 90.53333 41.065624 91.39271Q40.2375 92.42396 38.815624 92.42396Q37.64375 92.42396 36.89375 91.76771Q36.159374 91.11146 36.05 90.03333Z" fill-rule="nonzero"/><path fill="#000000" d="M99.613174 317.45L99.613174 316.66876Q99.019424 317.59064 97.8788 317.59064Q97.1288 317.59064 96.5038 317.1844Q95.8788 316.7625 95.53505 316.02814Q95.1913 315.29376 95.1913 314.34064Q95.1913 313.41876 95.5038 312.65314Q95.8163 311.8875 96.4413 311.4969Q97.0663 311.09064 97.831924 311.09064Q98.394424 311.09064 98.831924 311.325Q99.269424 311.5594 99.550674 311.9344L99.550674 308.85626L100.59755 308.85626L100.59755 317.45L99.613174 317.45ZM96.28505 314.34064Q96.28505 315.54376 96.78505 316.1375Q97.28505 316.71564 97.97255 316.71564Q98.66005 316.71564 99.144424 316.15314Q99.6288 315.59064 99.6288 314.4344Q99.6288 313.15314 99.1288 312.5594Q98.644424 311.96564 97.925674 311.96564Q97.22255 311.96564 96.7538 312.54376Q96.28505 313.10626 96.28505 314.34064ZM102.5663 317.45L102.5663 311.23126L103.519424 311.23126L103.519424 312.16876Q103.8788 311.5125 104.175674 311.3094Q104.488174 311.09064 104.863174 311.09064Q105.394424 311.09064 105.9413 311.41876L105.581924 312.40314Q105.1913 312.16876 104.8163 312.16876Q104.456924 312.16876 104.175674 312.3875Q103.91005 312.59064 103.800674 312.96564Q103.613174 313.52814 103.613174 314.1844L103.613174 317.45L102.5663 317.45ZM106.1913 314.34064Q106.1913 312.60626 107.144424 311.77814Q107.9413 311.09064 109.09755 311.09064Q110.3788 311.09064 111.1913 311.9344Q112.019424 312.7625 112.019424 314.2469Q112.019424 315.45 111.66005 316.1375Q111.300674 316.825 110.59755 317.21564Q109.91005 317.59064 109.09755 317.59064Q107.800674 317.59064 106.988174 316.7625Q106.1913 315.91876 106.1913 314.34064ZM107.269424 314.34064Q107.269424 315.52814 107.78505 316.1219Q108.3163 316.71564 109.09755 316.71564Q109.894424 316.71564 110.41005 316.1219Q110.925674 315.52814 110.925674 314.3094Q110.925674 313.15314 110.394424 312.5594Q109.8788 311.96564 109.09755 311.96564Q108.3163 311.96564 107.78505 312.5594Q107.269424 313.1375 107.269424 314.34064ZM113.581924 319.84064L113.581924 311.23126L114.53505 311.23126L114.53505 312.02814Q114.8788 311.5594 115.300674 311.325Q115.738174 311.09064 116.34755 311.09064Q117.144424 311.09064 117.7538 311.4969Q118.363174 311.90314 118.66005 312.65314Q118.97255 313.40314 118.97255 314.29376Q118.97255 315.2469 118.6288 316.0125Q118.300674 316.77814 117.644424 317.1844Q116.988174 317.59064 116.269424 317.59064Q115.738174 317.59064 115.3163 317.3719Q114.894424 317.1375 114.6288 316.8094L114.6288 319.84064L113.581924 319.84064ZM114.53505 314.3719Q114.53505 315.575 115.019424 316.15314Q115.5038 316.71564 116.1913 316.71564Q116.894424 316.71564 117.394424 316.1219Q117.894424 315.52814 117.894424 314.27814Q117.894424 313.09064 117.41005 312.5125Q116.925674 311.91876 116.238174 311.91876Q115.5663 311.91876 115.050674 312.54376Q114.53505 313.16876 114.53505 314.3719ZM120.1913 314.34064Q120.1913 312.60626 121.144424 311.77814Q121.9413 311.09064 123.09755 311.09064Q124.3788 311.09064 125.1913 311.9344Q126.019424 312.7625 126.019424 314.2469Q126.019424 315.45 125.66005 316.1375Q125.300674 316.825 124.59755 317.21564Q123.91005 317.59064 123.09755 317.59064Q121.800674 317.59064 120.988174 316.7625Q120.1913 315.91876 120.1913 314.34064ZM121.269424 314.34064Q121.269424 315.52814 121.78505 316.1219Q122.3163 316.71564 123.09755 316.71564Q123.894424 316.71564 124.41005 316.1219Q124.925674 315.52814 124.925674 314.3094Q124.925674 313.15314 124.394424 312.5594Q123.8788 311.96564 123.09755 311.96564Q122.3163 311.96564 121.78505 312.5594Q121.269424 313.1375 121.269424 314.34064ZM131.66005 317.45L131.66005 316.52814Q130.92567 317.59064 129.67567 317.59064Q129.1288 317.59064 128.64442 317.3875Q128.17567 317.16876 127.9413 316.85626Q127.706924 316.52814 127.613174 316.0594Q127.550674 315.7625 127.550674 315.075L127.550674 311.23126L128.61317 311.23126L128.61317 314.6844Q128.61317 315.4969 128.67567 315.79376Q128.76942 316.2 129.08192 316.45Q129.41005 316.6844 129.89442 316.6844Q130.36317 316.6844 130.76942 316.45Q131.1913 316.2 131.36317 315.77814Q131.55067 315.35626 131.55067 314.5594L131.55067 311.23126L132.59755 311.23126L132.59755 317.45L131.66005 317.45ZM136.8788 316.5125L137.03505 317.4344Q136.58192 317.52814 136.23817 317.52814Q135.66005 317.52814 135.34755 317.35626Q135.03505 317.16876 134.89442 316.8719Q134.76942 316.575 134.76942 315.6219L134.76942 312.04376L134.0038 312.04376L134.0038 311.23126L134.76942 311.23126L134.76942 309.6844L135.8163 309.0594L135.8163 311.23126L136.8788 311.23126L136.8788 312.04376L135.8163 312.04376L135.8163 315.6844Q135.8163 316.1375 135.86317 316.2625Q135.92567 316.3875 136.05067 316.46564Q136.17567 316.54376 136.41005 316.54376Q136.59755 316.54376 136.8788 316.5125Z" fill-rule="nonzero"/><path fill="#000000" d="M188.93939 315.45L190.03314 315.575Q189.78314 316.52814 189.08002 317.0594Q188.37689 317.59064 187.29877 317.59064Q185.93939 317.59064 185.12689 316.7469Q184.33002 315.90314 184.33002 314.3875Q184.33002 312.825 185.14252 311.96564Q185.95502 311.09064 187.23627 311.09064Q188.48627 311.09064 189.26752 311.9344Q190.06439 312.77814 190.06439 314.325Q190.06439 314.41876 190.06439 314.60626L185.42377 314.60626Q185.48627 315.6375 186.00189 316.1844Q186.51752 316.71564 187.29877 316.71564Q187.87689 316.71564 188.28314 316.41876Q188.70502 316.10626 188.93939 315.45ZM185.48627 313.7469L188.95502 313.7469Q188.89252 312.95 188.56439 312.5594Q188.04877 311.95 187.25189 311.95Q186.51752 311.95 186.01752 312.4344Q185.53314 312.91876 185.48627 313.7469ZM191.68939 317.45L191.68939 311.23126L192.62689 311.23126L192.62689 312.10626Q192.92377 311.6375 193.40814 311.3719Q193.89252 311.09064 194.51752 311.09064Q195.20502 311.09064 195.64252 311.3719Q196.09564 311.65314 196.26752 312.16876Q197.01752 311.09064 198.18939 311.09064Q199.12689 311.09064 199.61127 311.60626Q200.11127 312.10626 200.11127 313.1844L200.11127 317.45L199.06439 317.45L199.06439 313.52814Q199.06439 312.90314 198.95502 312.6219Q198.86127 312.34064 198.59564 312.16876Q198.33002 311.9969 197.95502 311.9969Q197.29877 311.9969 196.86127 312.4344Q196.43939 312.8719 196.43939 313.84064L196.43939 317.45L195.37689 317.45L195.37689 313.40314Q195.37689 312.7 195.11127 312.35626Q194.86127 311.9969 194.28314 311.9969Q193.83002 311.9969 193.45502 312.23126Q193.08002 312.46564 192.90814 312.91876Q192.73627 313.3719 192.73627 314.21564L192.73627 317.45L191.68939 317.45ZM203.65814 317.45L202.67377 317.45L202.67377 308.85626L203.73627 308.85626L203.73627 311.91876Q204.40814 311.09064 205.43939 311.09064Q206.01752 311.09064 206.51752 311.325Q207.03314 311.54376 207.36127 311.96564Q207.70502 312.3875 207.89252 312.98126Q208.08002 313.575 208.08002 314.2469Q208.08002 315.84064 207.28314 316.71564Q206.48627 317.59064 205.39252 317.59064Q204.28314 317.59064 203.65814 316.66876L203.65814 317.45ZM203.64252 314.29376Q203.64252 315.40314 203.95502 315.90314Q204.45502 316.71564 205.29877 316.71564Q205.98627 316.71564 206.48627 316.1219Q207.00189 315.52814 207.00189 314.325Q207.00189 313.10626 206.51752 312.52814Q206.03314 311.95 205.34564 311.95Q204.65814 311.95 204.14252 312.5594Q203.64252 313.15314 203.64252 314.29376ZM213.93939 315.45L215.03314 315.575Q214.78314 316.52814 214.08002 317.0594Q213.37689 317.59064 212.29877 317.59064Q210.93939 317.59064 210.12689 316.7469Q209.33002 315.90314 209.33002 314.3875Q209.33002 312.825 210.14252 311.96564Q210.95502 311.09064 212.23627 311.09064Q213.48627 311.09064 214.26752 311.9344Q215.06439 312.77814 215.06439 314.325Q215.06439 314.41876 215.06439 314.60626L210.42377 314.60626Q210.48627 315.6375 211.00189 316.1844Q211.51752 316.71564 212.29877 316.71564Q212.87689 316.71564 213.28314 316.41876Q213.70502 316.10626 213.93939 315.45ZM210.48627 313.7469L213.95502 313.7469Q213.89252 312.95 213.56439 312.5594Q213.04877 311.95 212.25189 311.95Q211.51752 311.95 211.01752 312.4344Q210.53314 312.91876 210.48627 313.7469ZM220.72064 317.45L220.72064 316.66876Q220.12689 317.59064 218.98627 317.59064Q218.23627 317.59064 217.61127 317.1844Q216.98627 316.7625 216.64252 316.02814Q216.29877 315.29376 216.29877 314.34064Q216.29877 313.41876 216.61127 312.65314Q216.92377 311.8875 217.54877 311.4969Q218.17377 311.09064 218.93939 311.09064Q219.50189 311.09064 219.93939 311.325Q220.37689 311.5594 220.65814 311.9344L220.65814 308.85626L221.70502 308.85626L221.70502 317.45L220.72064 317.45ZM217.39252 314.34064Q217.39252 315.54376 217.89252 316.1375Q218.39252 316.71564 219.08002 316.71564Q219.76752 316.71564 220.25189 316.15314Q220.73627 315.59064 220.73627 314.4344Q220.73627 313.15314 220.23627 312.5594Q219.75189 311.96564 219.03314 311.96564Q218.33002 311.96564 217.86127 312.54376Q217.39252 313.10626 217.39252 314.34064ZM227.72064 317.45L227.72064 316.66876Q227.12689 317.59064 225.98627 317.59064Q225.23627 317.59064 224.61127 317.1844Q223.98627 316.7625 223.64252 316.02814Q223.29877 315.29376 223.29877 314.34064Q223.29877 313.41876 223.61127 312.65314Q223.92377 311.8875 224.54877 311.4969Q225.17377 311.09064 225.93939 311.09064Q226.50189 311.09064 226.93939 311.325Q227.37689 311.5594 227.65814 311.9344L227.65814 308.85626L228.70502 308.85626L228.70502 317.45L227.72064 317.45ZM224.39252 314.34064Q224.39252 315.54376 224.89252 316.1375Q225.39252 316.71564 226.08002 316.71564Q226.76752 316.71564 227.25189 316.15314Q227.73627 315.59064 227.73627 314.4344Q227.73627 313.15314 227.23627 312.5594Q226.75189 311.96564 226.03314 311.96564Q225.33002 311.96564 224.86127 312.54376Q224.39252 313.10626 224.39252 314.34064ZM230.68939 310.075L230.68939 308.85626L231.75189 308.85626L231.75189 310.075L230.68939 310.075ZM230.68939 317.45L230.68939 311.23126L231.75189 311.23126L231.75189 317.45L230.68939 317.45ZM233.68939 317.45L233.68939 311.23126L234.62689 311.23126L234.62689 312.10626Q235.31439 311.09064 236.61127 311.09064Q237.17377 311.09064 237.64252 311.29376Q238.12689 311.4969 238.36127 311.825Q238.59564 312.15314 238.68939 312.59064Q238.73627 312.8875 238.73627 313.6219L238.73627 317.45L237.68939 317.45L237.68939 313.66876Q237.68939 313.0125 237.56439 312.7Q237.43939 312.3875 237.12689 312.2Q236.81439 311.9969 236.39252 311.9969Q235.72064 311.9969 235.22064 312.4344Q234.73627 312.85626 234.73627 314.04376L234.73627 317.45L233.68939 317.45ZM240.48627 317.96564L241.51752 318.1219Q241.58002 318.59064 241.87689 318.8094Q242.26752 319.10626 242.93939 319.10626Q243.67377 319.10626 244.06439 318.8094Q244.47064 318.5125 244.61127 317.9969Q244.70502 317.66876 244.68939 316.6375Q244.00189 317.45 242.97064 317.45Q241.68939 317.45 240.98627 316.52814Q240.28314 315.59064 240.28314 314.3094Q240.28314 313.41876 240.59564 312.66876Q240.92377 311.90314 241.53314 311.4969Q242.14252 311.09064 242.97064 311.09064Q244.08002 311.09064 244.79877 311.98126L244.79877 311.23126L245.76752 311.23126L245.76752 316.60626Q245.76752 318.0594 245.47064 318.66876Q245.17377 319.27814 244.53314 319.6219Q243.89252 319.98126 242.95502 319.98126Q241.84564 319.98126 241.15814 319.48126Q240.47064 318.98126 240.48627 317.96564ZM241.36127 314.23126Q241.36127 315.45 241.84564 316.0125Q242.33002 316.575 243.06439 316.575Q243.79877 316.575 244.28314 316.0125Q244.78314 315.45 244.78314 314.2625Q244.78314 313.1219 244.26752 312.54376Q243.76752 311.96564 243.04877 311.96564Q242.34564 311.96564 241.84564 312.54376Q241.36127 313.10626 241.36127 314.23126Z" fill-rule="nonzero"/><path fill="#000000" d="M303.59375 317.96564L304.625 318.1219Q304.6875 318.59064 304.98438 318.8094Q305.375 319.10626 306.04688 319.10626Q306.78125 319.10626 307.17188 318.8094Q307.57812 318.5125 307.71875 317.9969Q307.8125 317.66876 307.79688 316.6375Q307.10938 317.45 306.07812 317.45Q304.79688 317.45 304.09375 316.52814Q303.39062 315.59064 303.39062 314.3094Q303.39062 313.41876 303.70312 312.66876Q304.03125 311.90314 304.64062 311.4969Q305.25 311.09064 306.07812 311.09064Q307.1875 311.09064 307.90625 311.98126L307.90625 311.23126L308.875 311.23126L308.875 316.60626Q308.875 318.0594 308.57812 318.66876Q308.28125 319.27814 307.64062 319.6219Q307.0 319.98126 306.0625 319.98126Q304.95312 319.98126 304.26562 319.48126Q303.57812 318.98126 303.59375 317.96564ZM304.46875 314.23126Q304.46875 315.45 304.95312 316.0125Q305.4375 316.575 306.17188 316.575Q306.90625 316.575 307.39062 316.0125Q307.89062 315.45 307.89062 314.2625Q307.89062 313.1219 307.375 312.54376Q306.875 311.96564 306.15625 311.96564Q305.45312 311.96564 304.95312 312.54376Q304.46875 313.10626 304.46875 314.23126ZM315.04688 315.45L316.14062 315.575Q315.89062 316.52814 315.1875 317.0594Q314.48438 317.59064 313.40625 317.59064Q312.04688 317.59064 311.23438 316.7469Q310.4375 315.90314 310.4375 314.3875Q310.4375 312.825 311.25 311.96564Q312.0625 311.09064 313.34375 311.09064Q314.59375 311.09064 315.375 311.9344Q316.17188 312.77814 316.17188 314.325Q316.17188 314.41876 316.17188 314.60626L311.53125 314.60626Q311.59375 315.6375 312.10938 316.1844Q312.625 316.71564 313.40625 316.71564Q313.98438 316.71564 314.39062 316.41876Q314.8125 316.10626 315.04688 315.45ZM311.59375 313.7469L315.0625 313.7469Q315.0 312.95 314.67188 312.5594Q314.15625 311.95 313.35938 311.95Q312.625 311.95 312.125 312.4344Q311.64062 312.91876 311.59375 313.7469ZM317.76562 317.45L317.76562 308.85626L318.82812 308.85626L318.82812 317.45L317.76562 317.45ZM324.875 317.45L324.875 316.52814Q324.14062 317.59064 322.89062 317.59064Q322.34375 317.59064 321.85938 317.3875Q321.39062 317.16876 321.15625 316.85626Q320.92188 316.52814 320.82812 316.0594Q320.76562 315.7625 320.76562 315.075L320.76562 311.23126L321.82812 311.23126L321.82812 314.6844Q321.82812 315.4969 321.89062 315.79376Q321.98438 316.2 322.29688 316.45Q322.625 316.6844 323.10938 316.6844Q323.57812 316.6844 323.98438 316.45Q324.40625 316.2 324.57812 315.77814Q324.76562 315.35626 324.76562 314.5594L324.76562 311.23126L325.8125 311.23126L325.8125 317.45L324.875 317.45Z" fill-rule="nonzero"/><path fill="#000000" d="M399.8731 317.45L399.8731 308.85626L400.9356 308.85626L400.9356 317.45L399.8731 317.45ZM402.90436 310.075L402.90436 308.85626L403.96686 308.85626L403.96686 310.075L402.90436 310.075ZM402.90436 317.45L402.90436 311.23126L403.96686 311.23126L403.96686 317.45L402.90436 317.45ZM405.90436 317.45L405.90436 311.23126L406.84186 311.23126L406.84186 312.10626Q407.52936 311.09064 408.82623 311.09064Q409.38873 311.09064 409.85748 311.29376Q410.34186 311.4969 410.57623 311.825Q410.8106 312.15314 410.90436 312.59064Q410.95123 312.8875 410.95123 313.6219L410.95123 317.45L409.90436 317.45L409.90436 313.66876Q409.90436 313.0125 409.77936 312.7Q409.65436 312.3875 409.34186 312.2Q409.02936 311.9969 408.60748 311.9969Q407.9356 311.9969 407.4356 312.4344Q406.95123 312.85626 406.95123 314.04376L406.95123 317.45L405.90436 317.45ZM417.15436 315.45L418.2481 315.575Q417.9981 316.52814 417.29498 317.0594Q416.59186 317.59064 415.51373 317.59064Q414.15436 317.59064 413.34186 316.7469Q412.54498 315.90314 412.54498 314.3875Q412.54498 312.825 413.35748 311.96564Q414.16998 311.09064 415.45123 311.09064Q416.70123 311.09064 417.48248 311.9344Q418.27936 312.77814 418.27936 314.325Q418.27936 314.41876 418.27936 314.60626L413.63873 314.60626Q413.70123 315.6375 414.21686 316.1844Q414.73248 316.71564 415.51373 316.71564Q416.09186 316.71564 416.4981 316.41876Q416.91998 316.10626 417.15436 315.45ZM413.70123 313.7469L417.16998 313.7469Q417.10748 312.95 416.77936 312.5594Q416.26373 311.95 415.46686 311.95Q414.73248 311.95 414.23248 312.4344Q413.7481 312.91876 413.70123 313.7469ZM423.96686 316.6844Q423.3731 317.1844 422.82623 317.3875Q422.29498 317.59064 421.66998 317.59064Q420.63873 317.59064 420.09186 317.09064Q419.54498 316.59064 419.54498 315.8094Q419.54498 315.35626 419.7481 314.98126Q419.95123 314.59064 420.29498 314.3719Q420.63873 314.1375 421.0606 314.02814Q421.35748 313.9344 421.9981 313.85626Q423.26373 313.71564 423.8731 313.4969Q423.8731 313.27814 423.8731 313.23126Q423.8731 312.575 423.57623 312.3094Q423.16998 311.96564 422.3731 311.96564Q421.63873 311.96564 421.27936 312.23126Q420.91998 312.48126 420.7481 313.1375L419.71686 312.9969Q419.85748 312.34064 420.1856 311.9344Q420.51373 311.52814 421.1231 311.3094Q421.73248 311.09064 422.52936 311.09064Q423.32623 311.09064 423.82623 311.27814Q424.32623 311.46564 424.5606 311.7469Q424.79498 312.02814 424.88873 312.46564Q424.9356 312.73126 424.9356 313.4344L424.9356 314.84064Q424.9356 316.3094 424.9981 316.7Q425.07623 317.09064 425.27936 317.45L424.16998 317.45Q424.01373 317.1219 423.96686 316.6844ZM423.8731 314.325Q423.29498 314.5594 422.15436 314.73126Q421.4981 314.825 421.23248 314.95Q420.96686 315.0594 420.8106 315.27814Q420.66998 315.4969 420.66998 315.77814Q420.66998 316.2 420.98248 316.48126Q421.3106 316.7625 421.91998 316.7625Q422.52936 316.7625 422.9981 316.4969Q423.48248 316.23126 423.70123 315.7625Q423.8731 315.40314 423.8731 314.71564L423.8731 314.325ZM426.88873 317.45L426.88873 311.23126L427.84186 311.23126L427.84186 312.16876Q428.20123 311.5125 428.4981 311.3094Q428.8106 311.09064 429.1856 311.09064Q429.71686 311.09064 430.26373 311.41876L429.90436 312.40314Q429.51373 312.16876 429.13873 312.16876Q428.77936 312.16876 428.4981 312.3875Q428.23248 312.59064 428.1231 312.96564Q427.9356 313.52814 427.9356 314.1844L427.9356 317.45L426.88873 317.45Z" fill-rule="nonzero"/><path fill="#000000" d="M504.49622 317.45L504.49622 311.23126L505.44934 311.23126L505.44934 312.16876Q505.80872 311.5125 506.1056 311.3094Q506.4181 311.09064 506.7931 311.09064Q507.32434 311.09064 507.87122 311.41876L507.51184 312.40314Q507.12122 312.16876 506.74622 312.16876Q506.38684 312.16876 506.1056 312.3875Q505.83997 312.59064 505.7306 312.96564Q505.5431 313.52814 505.5431 314.1844L505.5431 317.45L504.49622 317.45ZM512.76184 315.45L513.8556 315.575Q513.6056 316.52814 512.90247 317.0594Q512.19934 317.59064 511.12122 317.59064Q509.76184 317.59064 508.94934 316.7469Q508.15247 315.90314 508.15247 314.3875Q508.15247 312.825 508.96497 311.96564Q509.77747 311.09064 511.05872 311.09064Q512.3087 311.09064 513.08997 311.9344Q513.88684 312.77814 513.88684 314.325Q513.88684 314.41876 513.88684 314.60626L509.24622 314.60626Q509.30872 315.6375 509.82434 316.1844Q510.33997 316.71564 511.12122 316.71564Q511.69934 316.71564 512.1056 316.41876Q512.52747 316.10626 512.76184 315.45ZM509.30872 313.7469L512.77747 313.7469Q512.71497 312.95 512.38684 312.5594Q511.87122 311.95 511.07434 311.95Q510.33997 311.95 509.83997 312.4344Q509.3556 312.91876 509.30872 313.7469ZM515.4806 317.45L515.4806 308.85626L516.5431 308.85626L516.5431 317.45L515.4806 317.45ZM522.58997 317.45L522.58997 316.52814Q521.8556 317.59064 520.6056 317.59064Q520.0587 317.59064 519.57434 317.3875Q519.1056 317.16876 518.8712 316.85626Q518.63684 316.52814 518.5431 316.0594Q518.4806 315.7625 518.4806 315.075L518.4806 311.23126L519.5431 311.23126L519.5431 314.6844Q519.5431 315.4969 519.6056 315.79376Q519.69934 316.2 520.01184 316.45Q520.33997 316.6844 520.82434 316.6844Q521.2931 316.6844 521.69934 316.45Q522.1212 316.2 522.2931 315.77814Q522.4806 315.35626 522.4806 314.5594L522.4806 311.23126L523.52747 311.23126L523.52747 317.45L522.58997 317.45Z" fill-rule="nonzero"/><path fill="#4285f4" d="M48.0 56.916668C48.0 56.364384 48.447716 55.916668 49.0 55.916668L59.0 55.916668C59.552284 55.916668 60.0 56.364384 60.0 56.916668L60.0 66.916664C60.0 67.46895 59.552284 67.916664 59.0 67.916664L49.0 67.916664C48.447716 67.916664 48.0 67.46895 48.0 66.916664Z" fill-rule="nonzero"/><path fill="#1a1a1a" d="M67.984375 65.916664L71.28125 57.322914L72.5 57.322914L76.015625 65.916664L74.734375 65.916664L73.71875 63.30729L70.140625 63.30729L69.1875 65.916664L67.984375 65.916664ZM70.46875 62.385414L73.375 62.385414L72.484375 60.010414Q72.0625 58.93229 71.875 58.229164Q71.703125 59.05729 71.40625 59.86979L70.46875 62.385414ZM77.515625 65.916664L75.15625 59.697914L76.265625 59.697914L77.609375 63.416664Q77.8125 64.02604 78.0 64.666664Q78.140625 64.18229 78.390625 63.49479L79.78125 59.697914L80.859375 59.697914L78.5 65.916664L77.515625 65.916664ZM85.046875 63.916664L86.140625 64.041664Q85.890625 64.99479 85.1875 65.52604Q84.484375 66.05729 83.40625 66.05729Q82.046875 66.05729 81.234375 65.21354Q80.4375 64.36979 80.4375 62.854164Q80.4375 61.291664 81.25 60.43229Q82.0625 59.55729 83.34375 59.55729Q84.59375 59.55729 85.375 60.40104Q86.171875 61.24479 86.171875 62.791664Q86.171875 62.885414 86.171875 63.072914L81.53125 63.072914Q81.59375 64.104164 82.109375 64.65104Q82.625 65.18229 83.40625 65.18229Q83.984375 65.18229 84.390625 64.885414Q84.8125 64.572914 85.046875 63.916664ZM81.59375 62.21354L85.0625 62.21354Q85.0 61.416664 84.671875 61.02604Q84.15625 60.416664 83.359375 60.416664Q82.625 60.416664 82.125 60.90104Q81.640625 61.385414 81.59375 62.21354ZM87.78125 65.916664L87.78125 59.697914L88.734375 59.697914L88.734375 60.635414Q89.09375 59.979164 89.390625 59.77604Q89.703125 59.55729 90.078125 59.55729Q90.609375 59.55729 91.15625 59.885414L90.796875 60.86979Q90.40625 60.635414 90.03125 60.635414Q89.671875 60.635414 89.390625 60.854164Q89.125 61.05729 89.015625 61.43229Q88.828125 61.99479 88.828125 62.65104L88.828125 65.916664L87.78125 65.916664ZM95.859375 65.15104Q95.265625 65.65104 94.71875 65.854164Q94.1875 66.05729 93.5625 66.05729Q92.53125 66.05729 91.984375 65.55729Q91.4375 65.05729 91.4375 64.27604Q91.4375 63.822914 91.640625 63.447914Q91.84375 63.05729 92.1875 62.83854Q92.53125 62.604164 92.953125 62.49479Q93.25 62.40104 93.890625 62.322914Q95.15625 62.18229 95.765625 61.96354Q95.765625 61.74479 95.765625 61.697914Q95.765625 61.041664 95.46875 60.77604Q95.0625 60.43229 94.265625 60.43229Q93.53125 60.43229 93.171875 60.697914Q92.8125 60.947914 92.640625 61.604164L91.609375 61.46354Q91.75 60.80729 92.078125 60.40104Q92.40625 59.99479 93.015625 59.77604Q93.625 59.55729 94.421875 59.55729Q95.21875 59.55729 95.71875 59.74479Q96.21875 59.93229 96.453125 60.21354Q96.6875 60.49479 96.78125 60.93229Q96.828125 61.197914 96.828125 61.90104L96.828125 63.30729Q96.828125 64.77604 96.890625 65.166664Q96.96875 65.55729 97.171875 65.916664L96.0625 65.916664Q95.90625 65.58854 95.859375 65.15104ZM95.765625 62.791664Q95.1875 63.02604 94.046875 63.197914Q93.390625 63.291664 93.125 63.416664Q92.859375 63.52604 92.703125 63.74479Q92.5625 63.96354 92.5625 64.24479Q92.5625 64.666664 92.875 64.947914Q93.203125 65.229164 93.8125 65.229164Q94.421875 65.229164 94.890625 64.96354Q95.375 64.697914 95.59375 64.229164Q95.765625 63.86979 95.765625 63.18229L95.765625 62.791664ZM98.59375 66.43229L99.625 66.58854Q99.6875 67.05729 99.984375 67.27604Q100.375 67.572914 101.046875 67.572914Q101.78125 67.572914 102.171875 67.27604Q102.578125 66.979164 102.71875 66.46354Q102.8125 66.135414 102.796875 65.104164Q102.109375 65.916664 101.078125 65.916664Q99.796875 65.916664 99.09375 64.99479Q98.390625 64.05729 98.390625 62.77604Q98.390625 61.885414 98.703125 61.135414Q99.03125 60.36979 99.640625 59.96354Q100.25 59.55729 101.078125 59.55729Q102.1875 59.55729 102.90625 60.447914L102.90625 59.697914L103.875 59.697914L103.875 65.072914Q103.875 66.52604 103.578125 67.135414Q103.28125 67.74479 102.640625 68.08854Q102.0 68.447914 101.0625 68.447914Q99.953125 68.447914 99.265625 67.947914Q98.578125 67.447914 98.59375 66.43229ZM99.46875 62.697914Q99.46875 63.916664 99.953125 64.479164Q100.4375 65.041664 101.171875 65.041664Q101.90625 65.041664 102.390625 64.479164Q102.890625 63.916664 102.890625 62.729164Q102.890625 61.58854 102.375 61.010414Q101.875 60.43229 101.15625 60.43229Q100.453125 60.43229 99.953125 61.010414Q99.46875 61.572914 99.46875 62.697914ZM110.046875 63.916664L111.140625 64.041664Q110.890625 64.99479 110.1875 65.52604Q109.484375 66.05729 108.40625 66.05729Q107.046875 66.05729 106.234375 65.21354Q105.4375 64.36979 105.4375 62.854164Q105.4375 61.291664 106.25 60.43229Q107.0625 59.55729 108.34375 59.55729Q109.59375 59.55729 110.375 60.40104Q111.171875 61.24479 111.171875 62.791664Q111.171875 62.885414 111.171875 63.072914L106.53125 63.072914Q106.59375 64.104164 107.109375 64.65104Q107.625 65.18229 108.40625 65.18229Q108.984375 65.18229 109.390625 64.885414Q109.8125 64.572914 110.046875 63.916664ZM106.59375 62.21354L110.0625 62.21354Q110.0 61.416664 109.671875 61.02604Q109.15625 60.416664 108.359375 60.416664Q107.625 60.416664 107.125 60.90104Q106.640625 61.385414 106.59375 62.21354ZM115.875 65.916664L115.875 57.322914L117.015625 57.322914L117.015625 64.90104L121.25 64.90104L121.25 65.916664L115.875 65.916664ZM122.875 65.916664L122.875 57.322914L124.015625 57.322914L124.015625 64.90104L128.25 64.90104L128.25 65.916664L122.875 65.916664ZM129.89062 65.916664L129.89062 57.322914L131.60938 57.322914L133.64062 63.40104Q133.92188 64.260414 134.04688 64.68229Q134.1875 64.21354 134.5 63.30729L136.5625 57.322914L138.09375 57.322914L138.09375 65.916664L137.0 65.916664L137.0 58.729164L134.5 65.916664L133.46875 65.916664L130.98438 58.604164L130.98438 65.916664L129.89062 65.916664ZM145.95312 62.541664L145.95312 61.541664L149.57812 61.52604L149.57812 64.71354Q148.75 65.385414 147.85938 65.729164Q146.96875 66.05729 146.03125 66.05729Q144.76562 66.05729 143.71875 65.52604Q142.6875 64.979164 142.15625 63.96354Q141.64062 62.93229 141.64062 61.666664Q141.64062 60.40104 142.15625 59.322914Q142.6875 58.229164 143.67188 57.71354Q144.65625 57.18229 145.9375 57.18229Q146.875 57.18229 147.625 57.479164Q148.375 57.77604 148.79688 58.322914Q149.23438 58.854164 149.45312 59.729164L148.4375 60.010414Q148.23438 59.354164 147.9375 58.979164Q147.65625 58.604164 147.125 58.385414Q146.59375 58.15104 145.95312 58.15104Q145.17188 58.15104 144.59375 58.385414Q144.03125 58.61979 143.67188 59.010414Q143.32812 59.40104 143.14062 59.86979Q142.8125 60.666664 142.8125 61.58854Q142.8125 62.74479 143.20312 63.52604Q143.60938 64.291664 144.35938 64.666664Q145.10938 65.041664 145.96875 65.041664Q146.70312 65.041664 147.40625 64.760414Q148.10938 64.46354 148.46875 64.15104L148.46875 62.541664L145.95312 62.541664ZM155.04688 63.916664L156.14062 64.041664Q155.89062 64.99479 155.1875 65.52604Q154.48438 66.05729 153.40625 66.05729Q152.04688 66.05729 151.23438 65.21354Q150.4375 64.36979 150.4375 62.854164Q150.4375 61.291664 151.25 60.43229Q152.0625 59.55729 153.34375 59.55729Q154.59375 59.55729 155.375 60.40104Q156.17188 61.24479 156.17188 62.791664Q156.17188 62.885414 156.17188 63.072914L151.53125 63.072914Q151.59375 64.104164 152.10938 64.65104Q152.625 65.18229 153.40625 65.18229Q153.98438 65.18229 154.39062 64.885414Q154.8125 64.572914 155.04688 63.916664ZM151.59375 62.21354L155.0625 62.21354Q155.0 61.416664 154.67188 61.02604Q154.15625 60.416664 153.35938 60.416664Q152.625 60.416664 152.125 60.90104Q151.64062 61.385414 151.59375 62.21354ZM157.79688 65.916664L157.79688 59.697914L158.73438 59.697914L158.73438 60.572914Q159.42188 59.55729 160.71875 59.55729Q161.28125 59.55729 161.75 59.760414Q162.23438 59.96354 162.46875 60.291664Q162.70312 60.61979 162.79688 61.05729Q162.84375 61.354164 162.84375 62.08854L162.84375 65.916664L161.79688 65.916664L161.79688 62.135414Q161.79688 61.479164 161.67188 61.166664Q161.54688 60.854164 161.23438 60.666664Q160.92188 60.46354 160.5 60.46354Q159.82812 60.46354 159.32812 60.90104Q158.84375 61.322914 158.84375 62.510414L158.84375 65.916664L157.79688 65.916664ZM169.04688 63.916664L170.14062 64.041664Q169.89062 64.99479 169.1875 65.52604Q168.48438 66.05729 167.40625 66.05729Q166.04688 66.05729 165.23438 65.21354Q164.4375 64.36979 164.4375 62.854164Q164.4375 61.291664 165.25 60.43229Q166.0625 59.55729 167.34375 59.55729Q168.59375 59.55729 169.375 60.40104Q170.17188 61.24479 170.17188 62.791664Q170.17188 62.885414 170.17188 63.072914L165.53125 63.072914Q165.59375 64.104164 166.10938 64.65104Q166.625 65.18229 167.40625 65.18229Q167.98438 65.18229 168.39062 64.885414Q168.8125 64.572914 169.04688 63.916664ZM165.59375 62.21354L169.0625 62.21354Q169.0 61.416664 168.67188 61.02604Q168.15625 60.416664 167.35938 60.416664Q166.625 60.416664 166.125 60.90104Q165.64062 61.385414 165.59375 62.21354ZM171.78125 65.916664L171.78125 59.697914L172.73438 59.697914L172.73438 60.635414Q173.09375 59.979164 173.39062 59.77604Q173.70312 59.55729 174.07812 59.55729Q174.60938 59.55729 175.15625 59.885414L174.79688 60.86979Q174.40625 60.635414 174.03125 60.635414Q173.67188 60.635414 173.39062 60.854164Q173.125 61.05729 173.01562 61.43229Q172.82812 61.99479 172.82812 62.65104L172.82812 65.916664L171.78125 65.916664ZM179.85938 65.15104Q179.26562 65.65104 178.71875 65.854164Q178.1875 66.05729 177.5625 66.05729Q176.53125 66.05729 175.98438 65.55729Q175.4375 65.05729 175.4375 64.27604Q175.4375 63.822914 175.64062 63.447914Q175.84375 63.05729 176.1875 62.83854Q176.53125 62.604164 176.95312 62.49479Q177.25 62.40104 177.89062 62.322914Q179.15625 62.18229 179.76562 61.96354Q179.76562 61.74479 179.76562 61.697914Q179.76562 61.041664 179.46875 60.77604Q179.0625 60.43229 178.26562 60.43229Q177.53125 60.43229 177.17188 60.697914Q176.8125 60.947914 176.64062 61.604164L175.60938 61.46354Q175.75 60.80729 176.07812 60.40104Q176.40625 59.99479 177.01562 59.77604Q177.625 59.55729 178.42188 59.55729Q179.21875 59.55729 179.71875 59.74479Q180.21875 59.93229 180.45312 60.21354Q180.6875 60.49479 180.78125 60.93229Q180.82812 61.197914 180.82812 61.90104L180.82812 63.30729Q180.82812 64.77604 180.89062 65.166664Q180.96875 65.55729 181.17188 65.916664L180.0625 65.916664Q179.90625 65.58854 179.85938 65.15104ZM179.76562 62.791664Q179.1875 63.02604 178.04688 63.197914Q177.39062 63.291664 177.125 63.416664Q176.85938 63.52604 176.70312 63.74479Q176.5625 63.96354 176.5625 64.24479Q176.5625 64.666664 176.875 64.947914Q177.20312 65.229164 177.8125 65.229164Q178.42188 65.229164 178.89062 64.96354Q179.375 64.697914 179.59375 64.229164Q179.76562 63.86979 179.76562 63.18229L179.76562 62.791664ZM185.09375 64.979164L185.25 65.90104Q184.79688 65.99479 184.45312 65.99479Q183.875 65.99479 183.5625 65.822914Q183.25 65.635414 183.10938 65.33854Q182.98438 65.041664 182.98438 64.08854L182.98438 60.510414L182.21875 60.510414L182.21875 59.697914L182.98438 59.697914L182.98438 58.15104L184.03125 57.52604L184.03125 59.697914L185.09375 59.697914L185.09375 60.510414L184.03125 60.510414L184.03125 64.15104Q184.03125 64.604164 184.07812 64.729164Q184.14062 64.854164 184.26562 64.93229Q184.39062 65.010414 184.625 65.010414Q184.8125 65.010414 185.09375 64.979164ZM190.04688 63.916664L191.14062 64.041664Q190.89062 64.99479 190.1875 65.52604Q189.48438 66.05729 188.40625 66.05729Q187.04688 66.05729 186.23438 65.21354Q185.4375 64.36979 185.4375 62.854164Q185.4375 61.291664 186.25 60.43229Q187.0625 59.55729 188.34375 59.55729Q189.59375 59.55729 190.375 60.40104Q191.17188 61.24479 191.17188 62.791664Q191.17188 62.885414 191.17188 63.072914L186.53125 63.072914Q186.59375 64.104164 187.10938 64.65104Q187.625 65.18229 188.40625 65.18229Q188.98438 65.18229 189.39062 64.885414Q189.8125 64.572914 190.04688 63.916664ZM186.59375 62.21354L190.0625 62.21354Q190.0 61.416664 189.67188 61.02604Q189.15625 60.416664 188.35938 60.416664Q187.625 60.416664 187.125 60.90104Q186.64062 61.385414 186.59375 62.21354ZM196.82812 65.916664L196.82812 65.135414Q196.23438 66.05729 195.09375 66.05729Q194.34375 66.05729 193.71875 65.65104Q193.09375 65.229164 192.75 64.49479Q192.40625 63.760414 192.40625 62.80729Q192.40625 61.885414 192.71875 61.11979Q193.03125 60.354164 193.65625 59.96354Q194.28125 59.55729 195.04688 59.55729Q195.60938 59.55729 196.04688 59.791664Q196.48438 60.02604 196.76562 60.40104L196.76562 57.322914L197.8125 57.322914L197.8125 65.916664L196.82812 65.916664ZM193.5 62.80729Q193.5 64.010414 194.0 64.604164Q194.5 65.18229 195.1875 65.18229Q195.875 65.18229 196.35938 64.61979Q196.84375 64.05729 196.84375 62.90104Q196.84375 61.61979 196.34375 61.02604Q195.85938 60.43229 195.14062 60.43229Q194.4375 60.43229 193.96875 61.010414Q193.5 61.572914 193.5 62.80729ZM204.8125 68.447914Q203.9375 67.33854 203.32812 65.86979Q202.73438 64.385414 202.73438 62.80729Q202.73438 61.416664 203.17188 60.135414Q203.70312 58.65104 204.8125 57.18229L205.5625 57.18229Q204.85938 58.40104 204.625 58.916664Q204.26562 59.729164 204.0625 60.604164Q203.8125 61.697914 203.8125 62.80729Q203.8125 65.635414 205.5625 68.447914L204.8125 68.447914ZM206.79688 65.916664L206.79688 59.697914L207.73438 59.697914L207.73438 60.572914Q208.03125 60.104164 208.51562 59.83854Q209.0 59.55729 209.625 59.55729Q210.3125 59.55729 210.75 59.83854Q211.20312 60.11979 211.375 60.635414Q212.125 59.55729 213.29688 59.55729Q214.23438 59.55729 214.71875 60.072914Q215.21875 60.572914 215.21875 61.65104L215.21875 65.916664L214.17188 65.916664L214.17188 61.99479Q214.17188 61.36979 214.0625 61.08854Q213.96875 60.80729 213.70312 60.635414Q213.4375 60.46354 213.0625 60.46354Q212.40625 60.46354 211.96875 60.90104Q211.54688 61.33854 211.54688 62.30729L211.54688 65.916664L210.48438 65.916664L210.48438 61.86979Q210.48438 61.166664 210.21875 60.822914Q209.96875 60.46354 209.39062 60.46354Q208.9375 60.46354 208.5625 60.697914Q208.1875 60.93229 208.01562 61.385414Q207.84375 61.83854 207.84375 62.68229L207.84375 65.916664L206.79688 65.916664ZM217.375 64.05729L218.40625 63.90104Q218.5 64.52604 218.89062 64.854164Q219.29688 65.18229 220.03125 65.18229Q220.75 65.18229 221.09375 64.90104Q221.45312 64.604164 221.45312 64.197914Q221.45312 63.83854 221.14062 63.635414Q220.92188 63.49479 220.0625 63.27604Q218.90625 62.979164 218.45312 62.77604Q218.01562 62.55729 217.78125 62.18229Q217.54688 61.80729 217.54688 61.33854Q217.54688 60.93229 217.73438 60.572914Q217.92188 60.21354 218.25 59.979164Q218.5 59.80729 218.92188 59.68229Q219.34375 59.55729 219.84375 59.55729Q220.5625 59.55729 221.10938 59.77604Q221.67188 59.979164 221.9375 60.33854Q222.20312 60.697914 222.29688 61.291664L221.26562 61.43229Q221.20312 60.96354 220.85938 60.697914Q220.53125 60.416664 219.90625 60.416664Q219.1875 60.416664 218.875 60.666664Q218.5625 60.90104 218.5625 61.229164Q218.5625 61.43229 218.6875 61.58854Q218.82812 61.760414 219.09375 61.86979Q219.25 61.93229 220.03125 62.135414Q221.15625 62.447914 221.59375 62.635414Q222.03125 62.822914 222.28125 63.18229Q222.53125 63.541664 222.53125 64.08854Q222.53125 64.61979 222.21875 65.08854Q221.92188 65.541664 221.34375 65.80729Q220.76562 66.05729 220.03125 66.05729Q218.8125 66.05729 218.17188 65.55729Q217.54688 65.041664 217.375 64.05729ZM225.48438 68.447914L224.73438 68.447914Q226.48438 65.635414 226.48438 62.80729Q226.48438 61.71354 226.23438 60.61979Q226.03125 59.74479 225.67188 58.93229Q225.4375 58.416664 224.73438 57.18229L225.48438 57.18229Q226.57812 58.65104 227.10938 60.135414Q227.5625 61.416664 227.5625 62.80729Q227.5625 64.385414 226.95312 65.86979Q226.34375 67.33854 225.48438 68.447914Z" fill-rule="nonzero"/><path fill="#ea4335" d="M244.0 56.916668C244.0 56.364384 244.44771 55.916668 245.0 55.916668L255.0 55.916668C255.55229 55.916668 256.0 56.364384 256.0 56.916668L256.0 66.916664C256.0 67.46895 255.55229 67.916664 255.0 67.916664L245.0 67.916664C244.44771 67.916664 244.0 67.46895 244.0 66.916664Z" fill-rule="nonzero"/><path fill="#1a1a1a" d="M263.98438 65.916664L267.28125 57.322914L268.5 57.322914L272.01562 65.916664L270.73438 65.916664L269.71875 63.30729L266.14062 63.30729L265.1875 65.916664L263.98438 65.916664ZM266.46875 62.385414L269.375 62.385414L268.48438 60.010414Q268.0625 58.93229 267.875 58.229164Q267.70312 59.05729 267.40625 59.86979L266.46875 62.385414ZM273.51562 65.916664L271.15625 59.697914L272.26562 59.697914L273.60938 63.416664Q273.8125 64.02604 274.0 64.666664Q274.14062 64.18229 274.39062 63.49479L275.78125 59.697914L276.85938 59.697914L274.5 65.916664L273.51562 65.916664ZM281.04688 63.916664L282.14062 64.041664Q281.89062 64.99479 281.1875 65.52604Q280.48438 66.05729 279.40625 66.05729Q278.04688 66.05729 277.23438 65.21354Q276.4375 64.36979 276.4375 62.854164Q276.4375 61.291664 277.25 60.43229Q278.0625 59.55729 279.34375 59.55729Q280.59375 59.55729 281.375 60.40104Q282.17188 61.24479 282.17188 62.791664Q282.17188 62.885414 282.17188 63.072914L277.53125 63.072914Q277.59375 64.104164 278.10938 64.65104Q278.625 65.18229 279.40625 65.18229Q279.98438 65.18229 280.39062 64.885414Q280.8125 64.572914 281.04688 63.916664ZM277.59375 62.21354L281.0625 62.21354Q281.0 61.416664 280.67188 61.02604Q280.15625 60.416664 279.35938 60.416664Q278.625 60.416664 278.125 60.90104Q277.64062 61.385414 277.59375 62.21354ZM283.78125 65.916664L283.78125 59.697914L284.73438 59.697914L284.73438 60.635414Q285.09375 59.979164 285.39062 59.77604Q285.70312 59.55729 286.07812 59.55729Q286.60938 59.55729 287.15625 59.885414L286.79688 60.86979Q286.40625 60.635414 286.03125 60.635414Q285.67188 60.635414 285.39062 60.854164Q285.125 61.05729 285.01562 61.43229Q284.82812 61.99479 284.82812 62.65104L284.82812 65.916664L283.78125 65.916664ZM291.85938 65.15104Q291.26562 65.65104 290.71875 65.854164Q290.1875 66.05729 289.5625 66.05729Q288.53125 66.05729 287.98438 65.55729Q287.4375 65.05729 287.4375 64.27604Q287.4375 63.822914 287.64062 63.447914Q287.84375 63.05729 288.1875 62.83854Q288.53125 62.604164 288.95312 62.49479Q289.25 62.40104 289.89062 62.322914Q291.15625 62.18229 291.76562 61.96354Q291.76562 61.74479 291.76562 61.697914Q291.76562 61.041664 291.46875 60.77604Q291.0625 60.43229 290.26562 60.43229Q289.53125 60.43229 289.17188 60.697914Q288.8125 60.947914 288.64062 61.604164L287.60938 61.46354Q287.75 60.80729 288.07812 60.40104Q288.40625 59.99479 289.01562 59.77604Q289.625 59.55729 290.42188 59.55729Q291.21875 59.55729 291.71875 59.74479Q292.21875 59.93229 292.45312 60.21354Q292.6875 60.49479 292.78125 60.93229Q292.82812 61.197914 292.82812 61.90104L292.82812 63.30729Q292.82812 64.77604 292.89062 65.166664Q292.96875 65.55729 293.17188 65.916664L292.0625 65.916664Q291.90625 65.58854 291.85938 65.15104ZM291.76562 62.791664Q291.1875 63.02604 290.04688 63.197914Q289.39062 63.291664 289.125 63.416664Q288.85938 63.52604 288.70312 63.74479Q288.5625 63.96354 288.5625 64.24479Q288.5625 64.666664 288.875 64.947914Q289.20312 65.229164 289.8125 65.229164Q290.42188 65.229164 290.89062 64.96354Q291.375 64.697914 291.59375 64.229164Q291.76562 63.86979 291.76562 63.18229L291.76562 62.791664ZM294.59375 66.43229L295.625 66.58854Q295.6875 67.05729 295.98438 67.27604Q296.375 67.572914 297.04688 67.572914Q297.78125 67.572914 298.17188 67.27604Q298.57812 66.979164 298.71875 66.46354Q298.8125 66.135414 298.79688 65.104164Q298.10938 65.916664 297.07812 65.916664Q295.79688 65.916664 295.09375 64.99479Q294.39062 64.05729 294.39062 62.77604Q294.39062 61.885414 294.70312 61.135414Q295.03125 60.36979 295.64062 59.96354Q296.25 59.55729 297.07812 59.55729Q298.1875 59.55729 298.90625 60.447914L298.90625 59.697914L299.875 59.697914L299.875 65.072914Q299.875 66.52604 299.57812 67.135414Q299.28125 67.74479 298.64062 68.08854Q298.0 68.447914 297.0625 68.447914Q295.95312 68.447914 295.26562 67.947914Q294.57812 67.447914 294.59375 66.43229ZM295.46875 62.697914Q295.46875 63.916664 295.95312 64.479164Q296.4375 65.041664 297.17188 65.041664Q297.90625 65.041664 298.39062 64.479164Q298.89062 63.916664 298.89062 62.729164Q298.89062 61.58854 298.375 61.010414Q297.875 60.43229 297.15625 60.43229Q296.45312 60.43229 295.95312 61.010414Q295.46875 61.572914 295.46875 62.697914ZM306.04688 63.916664L307.14062 64.041664Q306.89062 64.99479 306.1875 65.52604Q305.48438 66.05729 304.40625 66.05729Q303.04688 66.05729 302.23438 65.21354Q301.4375 64.36979 301.4375 62.854164Q301.4375 61.291664 302.25 60.43229Q303.0625 59.55729 304.34375 59.55729Q305.59375 59.55729 306.375 60.40104Q307.17188 61.24479 307.17188 62.791664Q307.17188 62.885414 307.17188 63.072914L302.53125 63.072914Q302.59375 64.104164 303.10938 64.65104Q303.625 65.18229 304.40625 65.18229Q304.98438 65.18229 305.39062 64.885414Q305.8125 64.572914 306.04688 63.916664ZM302.59375 62.21354L306.0625 62.21354Q306.0 61.416664 305.67188 61.02604Q305.15625 60.416664 304.35938 60.416664Q303.625 60.416664 303.125 60.90104Q302.64062 61.385414 302.59375 62.21354ZM311.875 65.916664L311.875 57.322914L313.01562 57.322914L313.01562 64.90104L317.25 64.90104L317.25 65.916664L311.875 65.916664ZM318.875 65.916664L318.875 57.322914L320.01562 57.322914L320.01562 64.90104L324.25 64.90104L324.25 65.916664L318.875 65.916664ZM325.89062 65.916664L325.89062 57.322914L327.60938 57.322914L329.64062 63.40104Q329.92188 64.260414 330.04688 64.68229Q330.1875 64.21354 330.5 63.30729L332.5625 57.322914L334.09375 57.322914L334.09375 65.916664L333.0 65.916664L333.0 58.729164L330.5 65.916664L329.46875 65.916664L326.98438 58.604164L326.98438 65.916664L325.89062 65.916664ZM337.57812 61.729164Q337.57812 59.58854 338.71875 58.385414Q339.875 57.166664 341.6875 57.166664Q342.89062 57.166664 343.84375 57.74479Q344.79688 58.30729 345.29688 59.322914Q345.79688 60.33854 345.79688 61.635414Q345.79688 62.93229 345.26562 63.96354Q344.73438 64.99479 343.76562 65.52604Q342.8125 66.05729 341.6875 66.05729Q340.46875 66.05729 339.51562 65.479164Q338.5625 64.885414 338.0625 63.885414Q337.57812 62.86979 337.57812 61.729164ZM338.75 61.74479Q338.75 63.30729 339.57812 64.197914Q340.42188 65.08854 341.6875 65.08854Q342.96875 65.08854 343.79688 64.197914Q344.625 63.291664 344.625 61.61979Q344.625 60.572914 344.26562 59.791664Q343.92188 59.010414 343.23438 58.58854Q342.54688 58.15104 341.70312 58.15104Q340.5 58.15104 339.625 58.979164Q338.75 59.80729 338.75 61.74479ZM346.79688 68.30729L346.79688 59.697914L347.75 59.697914L347.75 60.49479Q348.09375 60.02604 348.51562 59.791664Q348.95312 59.55729 349.5625 59.55729Q350.35938 59.55729 350.96875 59.96354Q351.57812 60.36979 351.875 61.11979Q352.1875 61.86979 352.1875 62.760414Q352.1875 63.71354 351.84375 64.479164Q351.51562 65.24479 350.85938 65.65104Q350.20312 66.05729 349.48438 66.05729Q348.95312 66.05729 348.53125 65.83854Q348.10938 65.604164 347.84375 65.27604L347.84375 68.30729L346.79688 68.30729ZM347.75 62.83854Q347.75 64.041664 348.23438 64.61979Q348.71875 65.18229 349.40625 65.18229Q350.10938 65.18229 350.60938 64.58854Q351.10938 63.99479 351.10938 62.74479Q351.10938 61.55729 350.625 60.979164Q350.14062 60.385414 349.45312 60.385414Q348.78125 60.385414 348.26562 61.010414Q347.75 61.635414 347.75 62.83854ZM356.09375 64.979164L356.25 65.90104Q355.79688 65.99479 355.45312 65.99479Q354.875 65.99479 354.5625 65.822914Q354.25 65.635414 354.10938 65.33854Q353.98438 65.041664 353.98438 64.08854L353.98438 60.510414L353.21875 60.510414L353.21875 59.697914L353.98438 59.697914L353.98438 58.15104L355.03125 57.52604L355.03125 59.697914L356.09375 59.697914L356.09375 60.510414L355.03125 60.510414L355.03125 64.15104Q355.03125 64.604164 355.07812 64.729164Q355.14062 64.854164 355.26562 64.93229Q355.39062 65.010414 355.625 65.010414Q355.8125 65.010414 356.09375 64.979164ZM356.79688 58.541664L356.79688 57.322914L357.85938 57.322914L357.85938 58.541664L356.79688 58.541664ZM356.79688 65.916664L356.79688 59.697914L357.85938 59.697914L357.85938 65.916664L356.79688 65.916664ZM359.79688 65.916664L359.79688 59.697914L360.73438 59.697914L360.73438 60.572914Q361.03125 60.104164 361.51562 59.83854Q362.0 59.55729 362.625 59.55729Q363.3125 59.55729 363.75 59.83854Q364.20312 60.11979 364.375 60.635414Q365.125 59.55729 366.29688 59.55729Q367.23438 59.55729 367.71875 60.072914Q368.21875 60.572914 368.21875 61.65104L368.21875 65.916664L367.17188 65.916664L367.17188 61.99479Q367.17188 61.36979 367.0625 61.08854Q366.96875 60.80729 366.70312 60.635414Q366.4375 60.46354 366.0625 60.46354Q365.40625 60.46354 364.96875 60.90104Q364.54688 61.33854 364.54688 62.30729L364.54688 65.916664L363.48438 65.916664L363.48438 61.86979Q363.48438 61.166664 363.21875 60.822914Q362.96875 60.46354 362.39062 60.46354Q361.9375 60.46354 361.5625 60.697914Q361.1875 60.93229 361.01562 61.385414Q360.84375 61.83854 360.84375 62.68229L360.84375 65.916664L359.79688 65.916664ZM370.79688 58.541664L370.79688 57.322914L371.85938 57.322914L371.85938 58.541664L370.79688 58.541664ZM370.79688 65.916664L370.79688 59.697914L371.85938 59.697914L371.85938 65.916664L370.79688 65.916664ZM373.23438 65.916664L373.23438 65.05729L377.20312 60.510414Q376.51562 60.541664 376.0 60.541664L373.46875 60.541664L373.46875 59.697914L378.5625 59.697914L378.5625 60.385414L375.1875 64.33854L374.53125 65.05729Q375.25 65.010414 375.85938 65.010414L378.75 65.010414L378.75 65.916664L373.23438 65.916664ZM383.04688 63.916664L384.14062 64.041664Q383.89062 64.99479 383.1875 65.52604Q382.48438 66.05729 381.40625 66.05729Q380.04688 66.05729 379.23438 65.21354Q378.4375 64.36979 378.4375 62.854164Q378.4375 61.291664 379.25 60.43229Q380.0625 59.55729 381.34375 59.55729Q382.59375 59.55729 383.375 60.40104Q384.17188 61.24479 384.17188 62.791664Q384.17188 62.885414 384.17188 63.072914L379.53125 63.072914Q379.59375 64.104164 380.10938 64.65104Q380.625 65.18229 381.40625 65.18229Q381.98438 65.18229 382.39062 64.885414Q382.8125 64.572914 383.04688 63.916664ZM379.59375 62.21354L383.0625 62.21354Q383.0 61.416664 382.67188 61.02604Q382.15625 60.416664 381.35938 60.416664Q380.625 60.416664 380.125 60.90104Q379.64062 61.385414 379.59375 62.21354ZM389.82812 65.916664L389.82812 65.135414Q389.23438 66.05729 388.09375 66.05729Q387.34375 66.05729 386.71875 65.65104Q386.09375 65.229164 385.75 64.49479Q385.40625 63.760414 385.40625 62.80729Q385.40625 61.885414 385.71875 61.11979Q386.03125 60.354164 386.65625 59.96354Q387.28125 59.55729 388.04688 59.55729Q388.60938 59.55729 389.04688 59.791664Q389.48438 60.02604 389.76562 60.40104L389.76562 57.322914L390.8125 57.322914L390.8125 65.916664L389.82812 65.916664ZM386.5 62.80729Q386.5 64.010414 387.0 64.604164Q387.5 65.18229 388.1875 65.18229Q388.875 65.18229 389.35938 64.61979Q389.84375 64.05729 389.84375 62.90104Q389.84375 61.61979 389.34375 61.02604Q388.85938 60.43229 388.14062 60.43229Q387.4375 60.43229 386.96875 61.010414Q386.5 61.572914 386.5 62.80729ZM397.8125 68.447914Q396.9375 67.33854 396.32812 65.86979Q395.73438 64.385414 395.73438 62.80729Q395.73438 61.416664 396.17188 60.135414Q396.70312 58.65104 397.8125 57.18229L398.5625 57.18229Q397.85938 58.40104 397.625 58.916664Q397.26562 59.729164 397.0625 60.604164Q396.8125 61.697914 396.8125 62.80729Q396.8125 65.635414 398.5625 68.447914L397.8125 68.447914ZM399.79688 65.916664L399.79688 59.697914L400.73438 59.697914L400.73438 60.572914Q401.03125 60.104164 401.51562 59.83854Q402.0 59.55729 402.625 59.55729Q403.3125 59.55729 403.75 59.83854Q404.20312 60.11979 404.375 60.635414Q405.125 59.55729 406.29688 59.55729Q407.23438 59.55729 407.71875 60.072914Q408.21875 60.572914 408.21875 61.65104L408.21875 65.916664L407.17188 65.916664L407.17188 61.99479Q407.17188 61.36979 407.0625 61.08854Q406.96875 60.80729 406.70312 60.635414Q406.4375 60.46354 406.0625 60.46354Q405.40625 60.46354 404.96875 60.90104Q404.54688 61.33854 404.54688 62.30729L404.54688 65.916664L403.48438 65.916664L403.48438 61.86979Q403.48438 61.166664 403.21875 60.822914Q402.96875 60.46354 402.39062 60.46354Q401.9375 60.46354 401.5625 60.697914Q401.1875 60.93229 401.01562 61.385414Q400.84375 61.83854 400.84375 62.68229L400.84375 65.916664L399.79688 65.916664ZM410.375 64.05729L411.40625 63.90104Q411.5 64.52604 411.89062 64.854164Q412.29688 65.18229 413.03125 65.18229Q413.75 65.18229 414.09375 64.90104Q414.45312 64.604164 414.45312 64.197914Q414.45312 63.83854 414.14062 63.635414Q413.92188 63.49479 413.0625 63.27604Q411.90625 62.979164 411.45312 62.77604Q411.01562 62.55729 410.78125 62.18229Q410.54688 61.80729 410.54688 61.33854Q410.54688 60.93229 410.73438 60.572914Q410.92188 60.21354 411.25 59.979164Q411.5 59.80729 411.92188 59.68229Q412.34375 59.55729 412.84375 59.55729Q413.5625 59.55729 414.10938 59.77604Q414.67188 59.979164 414.9375 60.33854Q415.20312 60.697914 415.29688 61.291664L414.26562 61.43229Q414.20312 60.96354 413.85938 60.697914Q413.53125 60.416664 412.90625 60.416664Q412.1875 60.416664 411.875 60.666664Q411.5625 60.90104 411.5625 61.229164Q411.5625 61.43229 411.6875 61.58854Q411.82812 61.760414 412.09375 61.86979Q412.25 61.93229 413.03125 62.135414Q414.15625 62.447914 414.59375 62.635414Q415.03125 62.822914 415.28125 63.18229Q415.53125 63.541664 415.53125 64.08854Q415.53125 64.61979 415.21875 65.08854Q414.92188 65.541664 414.34375 65.80729Q413.76562 66.05729 413.03125 66.05729Q411.8125 66.05729 411.17188 65.55729Q410.54688 65.041664 410.375 64.05729ZM418.48438 68.447914L417.73438 68.447914Q419.48438 65.635414 419.48438 62.80729Q419.48438 61.71354 419.23438 60.61979Q419.03125 59.74479 418.67188 58.93229Q418.4375 58.416664 417.73438 57.18229L418.48438 57.18229Q419.57812 58.65104 420.10938 60.135414Q420.5625 61.416664 420.5625 62.80729Q420.5625 64.385414 419.95312 65.86979Q419.34375 67.33854 418.48438 68.447914Z" fill-rule="nonzero"/><path fill="#fbbc04" d="M437.0 56.916668C437.0 56.364384 437.44772 55.916668 438.0 55.916668L448.0 55.916668C448.55228 55.916668 449.0 56.364384 449.0 56.916668L449.0 66.916664C449.0 67.46895 448.55228 67.916664 448.0 67.916664L438.0 67.916664C437.44772 67.916664 437.0 67.46895 437.0 66.916664Z" fill-rule="nonzero"/><path fill="#1a1a1a" d="M456.98438 65.916664L460.28125 57.322914L461.5 57.322914L465.01562 65.916664L463.73438 65.916664L462.71875 63.30729L459.14062 63.30729L458.1875 65.916664L456.98438 65.916664ZM459.46875 62.385414L462.375 62.385414L461.48438 60.010414Q461.0625 58.93229 460.875 58.229164Q460.70312 59.05729 460.40625 59.86979L459.46875 62.385414ZM466.51562 65.916664L464.15625 59.697914L465.26562 59.697914L466.60938 63.416664Q466.8125 64.02604 467.0 64.666664Q467.14062 64.18229 467.39062 63.49479L468.78125 59.697914L469.85938 59.697914L467.5 65.916664L466.51562 65.916664ZM469.59375 66.43229L470.625 66.58854Q470.6875 67.05729 470.98438 67.27604Q471.375 67.572914 472.04688 67.572914Q472.78125 67.572914 473.17188 67.27604Q473.57812 66.979164 473.71875 66.46354Q473.8125 66.135414 473.79688 65.104164Q473.10938 65.916664 472.07812 65.916664Q470.79688 65.916664 470.09375 64.99479Q469.39062 64.05729 469.39062 62.77604Q469.39062 61.885414 469.70312 61.135414Q470.03125 60.36979 470.64062 59.96354Q471.25 59.55729 472.07812 59.55729Q473.1875 59.55729 473.90625 60.447914L473.90625 59.697914L474.875 59.697914L474.875 65.072914Q474.875 66.52604 474.57812 67.135414Q474.28125 67.74479 473.64062 68.08854Q473.0 68.447914 472.0625 68.447914Q470.95312 68.447914 470.26562 67.947914Q469.57812 67.447914 469.59375 66.43229ZM470.46875 62.697914Q470.46875 63.916664 470.95312 64.479164Q471.4375 65.041664 472.17188 65.041664Q472.90625 65.041664 473.39062 64.479164Q473.89062 63.916664 473.89062 62.729164Q473.89062 61.58854 473.375 61.010414Q472.875 60.43229 472.15625 60.43229Q471.45312 60.43229 470.95312 61.010414Q470.46875 61.572914 470.46875 62.697914ZM479.92188 65.916664L479.92188 57.322914L483.17188 57.322914Q484.01562 57.322914 484.46875 57.40104Q485.10938 57.510414 485.53125 57.80729Q485.96875 58.104164 486.21875 58.635414Q486.48438 59.166664 486.48438 59.80729Q486.48438 60.90104 485.78125 61.666664Q485.09375 62.416664 483.26562 62.416664L481.0625 62.416664L481.0625 65.916664L479.92188 65.916664ZM481.0625 61.416664L483.28125 61.416664Q484.39062 61.416664 484.84375 61.010414Q485.3125 60.58854 485.3125 59.83854Q485.3125 59.30729 485.03125 58.93229Q484.76562 58.541664 484.32812 58.416664Q484.03125 58.33854 483.26562 58.33854L481.0625 58.33854L481.0625 61.416664ZM487.75 68.30729L487.625 67.322914Q487.96875 67.416664 488.23438 67.416664Q488.57812 67.416664 488.78125 67.291664Q489.0 67.18229 489.14062 66.979164Q489.23438 66.80729 489.46875 66.18229Q489.48438 66.104164 489.5625 65.93229L487.1875 59.697914L488.32812 59.697914L489.625 63.291664Q489.875 63.979164 490.07812 64.74479Q490.26562 64.010414 490.51562 63.322914L491.84375 59.697914L492.89062 59.697914L490.53125 66.02604Q490.14062 67.041664 489.9375 67.43229Q489.65625 67.96354 489.28125 68.197914Q488.92188 68.447914 488.42188 68.447914Q488.125 68.447914 487.75 68.30729ZM495.10938 65.916664L495.10938 58.33854L492.28125 58.33854L492.28125 57.322914L499.09375 57.322914L499.09375 58.33854L496.25 58.33854L496.25 65.916664L495.10938 65.916664ZM499.40625 62.80729Q499.40625 61.072914 500.35938 60.24479Q501.15625 59.55729 502.3125 59.55729Q503.59375 59.55729 504.40625 60.40104Q505.23438 61.229164 505.23438 62.71354Q505.23438 63.916664 504.875 64.604164Q504.51562 65.291664 503.8125 65.68229Q503.125 66.05729 502.3125 66.05729Q501.01562 66.05729 500.20312 65.229164Q499.40625 64.385414 499.40625 62.80729ZM500.48438 62.80729Q500.48438 63.99479 501.0 64.58854Q501.53125 65.18229 502.3125 65.18229Q503.10938 65.18229 503.625 64.58854Q504.14062 63.99479 504.14062 62.77604Q504.14062 61.61979 503.60938 61.02604Q503.09375 60.43229 502.3125 60.43229Q501.53125 60.43229 501.0 61.02604Q500.48438 61.604164 500.48438 62.80729ZM506.78125 65.916664L506.78125 59.697914L507.73438 59.697914L507.73438 60.635414Q508.09375 59.979164 508.39062 59.77604Q508.70312 59.55729 509.07812 59.55729Q509.60938 59.55729 510.15625 59.885414L509.79688 60.86979Q509.40625 60.635414 509.03125 60.635414Q508.67188 60.635414 508.39062 60.854164Q508.125 61.05729 508.01562 61.43229Q507.82812 61.99479 507.82812 62.65104L507.82812 65.916664L506.78125 65.916664ZM514.8594 63.635414L515.8906 63.77604Q515.71875 64.83854 515.0156 65.447914Q514.3125 66.05729 513.2969 66.05729Q512.0156 66.05729 511.23438 65.229164Q510.46875 64.385414 510.46875 62.822914Q510.46875 61.822914 510.79688 61.072914Q511.14062 60.30729 511.8125 59.93229Q512.5 59.55729 513.3125 59.55729Q514.3125 59.55729 514.9531 60.072914Q515.6094 60.572914 515.7969 61.52604L514.7656 61.68229Q514.625 61.05729 514.25 60.74479Q513.875 60.416664 513.34375 60.416664Q512.5469 60.416664 512.0469 60.99479Q511.54688 61.55729 511.54688 62.791664Q511.54688 64.05729 512.03125 64.61979Q512.5156 65.18229 513.28125 65.18229Q513.90625 65.18229 514.3125 64.80729Q514.7344 64.43229 514.8594 63.635414ZM516.7969 65.916664L516.7969 57.322914L517.84375 57.322914L517.84375 60.40104Q518.5781 59.55729 519.7031 59.55729Q520.40625 59.55729 520.90625 59.83854Q521.4219 60.104164 521.6406 60.58854Q521.8594 61.05729 521.8594 61.979164L521.8594 65.916664L520.8125 65.916664L520.8125 61.979164Q520.8125 61.18229 520.46875 60.822914Q520.125 60.46354 519.5 60.46354Q519.03125 60.46354 518.6094 60.71354Q518.2031 60.947914 518.0156 61.36979Q517.84375 61.77604 517.84375 62.510414L517.84375 65.916664L516.7969 65.916664ZM528.8125 68.447914Q527.9375 67.33854 527.3281 65.86979Q526.7344 64.385414 526.7344 62.80729Q526.7344 61.416664 527.1719 60.135414Q527.7031 58.65104 528.8125 57.18229L529.5625 57.18229Q528.8594 58.40104 528.625 58.916664Q528.2656 59.729164 528.0625 60.604164Q527.8125 61.697914 527.8125 62.80729Q527.8125 65.635414 529.5625 68.447914L528.8125 68.447914ZM530.7969 65.916664L530.7969 59.697914L531.7344 59.697914L531.7344 60.572914Q532.03125 60.104164 532.5156 59.83854Q533.0 59.55729 533.625 59.55729Q534.3125 59.55729 534.75 59.83854Q535.2031 60.11979 535.375 60.635414Q536.125 59.55729 537.2969 59.55729Q538.2344 59.55729 538.71875 60.072914Q539.21875 60.572914 539.21875 61.65104L539.21875 65.916664L538.1719 65.916664L538.1719 61.99479Q538.1719 61.36979 538.0625 61.08854Q537.96875 60.80729 537.7031 60.635414Q537.4375 60.46354 537.0625 60.46354Q536.40625 60.46354 535.96875 60.90104Q535.5469 61.33854 535.5469 62.30729L535.5469 65.916664L534.4844 65.916664L534.4844 61.86979Q534.4844 61.166664 534.21875 60.822914Q533.96875 60.46354 533.3906 60.46354Q532.9375 60.46354 532.5625 60.697914Q532.1875 60.93229 532.0156 61.385414Q531.84375 61.83854 531.84375 62.68229L531.84375 65.916664L530.7969 65.916664ZM541.375 64.05729L542.40625 63.90104Q542.5 64.52604 542.8906 64.854164Q543.2969 65.18229 544.03125 65.18229Q544.75 65.18229 545.09375 64.90104Q545.4531 64.604164 545.4531 64.197914Q545.4531 63.83854 545.1406 63.635414Q544.9219 63.49479 544.0625 63.27604Q542.90625 62.979164 542.4531 62.77604Q542.0156 62.55729 541.78125 62.18229Q541.5469 61.80729 541.5469 61.33854Q541.5469 60.93229 541.7344 60.572914Q541.9219 60.21354 542.25 59.979164Q542.5 59.80729 542.9219 59.68229Q543.34375 59.55729 543.84375 59.55729Q544.5625 59.55729 545.1094 59.77604Q545.6719 59.979164 545.9375 60.33854Q546.2031 60.697914 546.2969 61.291664L545.2656 61.43229Q545.2031 60.96354 544.8594 60.697914Q544.53125 60.416664 543.90625 60.416664Q543.1875 60.416664 542.875 60.666664Q542.5625 60.90104 542.5625 61.229164Q542.5625 61.43229 542.6875 61.58854Q542.8281 61.760414 543.09375 61.86979Q543.25 61.93229 544.03125 62.135414Q545.15625 62.447914 545.59375 62.635414Q546.03125 62.822914 546.28125 63.18229Q546.53125 63.541664 546.53125 64.08854Q546.53125 64.61979 546.21875 65.08854Q545.9219 65.541664 545.34375 65.80729Q544.7656 66.05729 544.03125 66.05729Q542.8125 66.05729 542.1719 65.55729Q541.5469 65.041664 541.375 64.05729ZM549.4844 68.447914L548.7344 68.447914Q550.4844 65.635414 550.4844 62.80729Q550.4844 61.71354 550.2344 60.61979Q550.03125 59.74479 549.6719 58.93229Q549.4375 58.416664 548.7344 57.18229L549.4844 57.18229Q550.5781 58.65104 551.1094 60.135414Q551.5625 61.416664 551.5625 62.80729Q551.5625 64.385414 550.9531 65.86979Q550.34375 67.33854 549.4844 68.447914Z" fill-rule="nonzero"/><path fill="#757575" d="M211.60938 37.55L211.60938 23.2375L213.5 23.2375L213.5 29.1125L220.9375 29.1125L220.9375 23.2375L222.82812 23.2375L222.82812 37.55L220.9375 37.55L220.9375 30.8L213.5 30.8L213.5 37.55L211.60938 37.55ZM231.09375 36.26875Q230.10938 37.096874 229.20312 37.440624Q228.29688 37.784374 227.26562 37.784374Q225.5625 37.784374 224.64062 36.95625Q223.71875 36.1125 223.71875 34.815624Q223.71875 34.05 224.0625 33.425Q224.42188 32.8 224.98438 32.425Q225.54688 32.034374 226.25 31.83125Q226.76562 31.70625 227.8125 31.565624Q229.9375 31.315624 230.9375 30.971874Q230.95312 30.6125 230.95312 30.503124Q230.95312 29.440624 230.45312 28.9875Q229.78125 28.39375 228.45312 28.39375Q227.20312 28.39375 226.60938 28.83125Q226.03125 29.26875 225.75 30.378124L224.03125 30.14375Q224.26562 29.034374 224.79688 28.3625Q225.32812 27.675 226.34375 27.315624Q227.35938 26.940624 228.70312 26.940624Q230.03125 26.940624 230.85938 27.253124Q231.6875 27.565624 232.07812 28.05Q232.46875 28.51875 232.625 29.2375Q232.71875 29.690624 232.71875 30.8625L232.71875 33.20625Q232.71875 35.659374 232.82812 36.315624Q232.9375 36.95625 233.28125 37.55L231.4375 37.55Q231.17188 37.003124 231.09375 36.26875ZM230.9375 32.346874Q229.98438 32.7375 228.0625 33.003124Q226.98438 33.159374 226.53125 33.3625Q226.09375 33.55 225.84375 33.925Q225.59375 34.3 225.59375 34.76875Q225.59375 35.471874 226.125 35.940624Q226.65625 36.409374 227.6875 36.409374Q228.70312 36.409374 229.48438 35.971874Q230.28125 35.51875 230.65625 34.753124Q230.9375 34.14375 230.9375 32.9875L230.9375 32.346874ZM235.29688 37.55L235.29688 27.175L236.875 27.175L236.875 28.753124Q237.48438 27.64375 238.0 27.3Q238.51562 26.940624 239.125 26.940624Q240.01562 26.940624 240.9375 27.503124L240.32812 29.14375Q239.6875 28.753124 239.04688 28.753124Q238.46875 28.753124 238.0 29.1125Q237.54688 29.45625 237.34375 30.065624Q237.0625 31.003124 237.0625 32.1125L237.0625 37.55L235.29688 37.55ZM249.04688 37.55L249.04688 36.2375Q248.0625 37.784374 246.14062 37.784374Q244.90625 37.784374 243.85938 37.096874Q242.82812 36.409374 242.25 35.190624Q241.6875 33.971874 241.6875 32.378124Q241.6875 30.815624 242.20312 29.55Q242.71875 28.284374 243.75 27.6125Q244.79688 26.940624 246.0625 26.940624Q247.0 26.940624 247.73438 27.346874Q248.46875 27.7375 248.9375 28.3625L248.9375 23.2375L250.67188 23.2375L250.67188 37.55L249.04688 37.55ZM243.48438 32.378124Q243.48438 34.3625 244.32812 35.346874Q245.17188 36.33125 246.3125 36.33125Q247.46875 36.33125 248.26562 35.39375Q249.07812 34.45625 249.07812 32.51875Q249.07812 30.39375 248.25 29.39375Q247.4375 28.39375 246.23438 28.39375Q245.0625 28.39375 244.26562 29.3625Q243.48438 30.315624 243.48438 32.378124ZM255.23438 37.55L252.0625 27.175L253.875 27.175L255.53125 33.159374L256.14062 35.39375Q256.1875 35.221874 256.67188 33.253124L258.32812 27.175L260.14062 27.175L261.6875 33.190624L262.20312 35.175L262.79688 33.175L264.57812 27.175L266.28125 27.175L263.04688 37.55L261.21875 37.55L259.5625 31.33125L259.17188 29.565624L257.0625 37.55L255.23438 37.55ZM275.09375 36.26875Q274.10938 37.096874 273.20312 37.440624Q272.29688 37.784374 271.26562 37.784374Q269.5625 37.784374 268.64062 36.95625Q267.71875 36.1125 267.71875 34.815624Q267.71875 34.05 268.0625 33.425Q268.42188 32.8 268.98438 32.425Q269.54688 32.034374 270.25 31.83125Q270.76562 31.70625 271.8125 31.565624Q273.9375 31.315624 274.9375 30.971874Q274.95312 30.6125 274.95312 30.503124Q274.95312 29.440624 274.45312 28.9875Q273.78125 28.39375 272.45312 28.39375Q271.20312 28.39375 270.60938 28.83125Q270.03125 29.26875 269.75 30.378124L268.03125 30.14375Q268.26562 29.034374 268.79688 28.3625Q269.32812 27.675 270.34375 27.315624Q271.35938 26.940624 272.70312 26.940624Q274.03125 26.940624 274.85938 27.253124Q275.6875 27.565624 276.07812 28.05Q276.46875 28.51875 276.625 29.2375Q276.71875 29.690624 276.71875 30.8625L276.71875 33.20625Q276.71875 35.659374 276.82812 36.315624Q276.9375 36.95625 277.28125 37.55L275.4375 37.55Q275.17188 37.003124 275.09375 36.26875ZM274.9375 32.346874Q273.98438 32.7375 272.0625 33.003124Q270.98438 33.159374 270.53125 33.3625Q270.09375 33.55 269.84375 33.925Q269.59375 34.3 269.59375 34.76875Q269.59375 35.471874 270.125 35.940624Q270.65625 36.409374 271.6875 36.409374Q272.70312 36.409374 273.48438 35.971874Q274.28125 35.51875 274.65625 34.753124Q274.9375 34.14375 274.9375 32.9875L274.9375 32.346874ZM279.29688 37.55L279.29688 27.175L280.875 27.175L280.875 28.753124Q281.48438 27.64375 282.0 27.3Q282.51562 26.940624 283.125 26.940624Q284.01562 26.940624 284.9375 27.503124L284.32812 29.14375Q283.6875 28.753124 283.04688 28.753124Q282.46875 28.753124 282.0 29.1125Q281.54688 29.45625 281.34375 30.065624Q281.0625 31.003124 281.0625 32.1125L281.0625 37.55L279.29688 37.55ZM293.42188 34.20625L295.23438 34.440624Q294.8125 36.01875 293.64062 36.909374Q292.48438 37.784374 290.67188 37.784374Q288.40625 37.784374 287.0625 36.39375Q285.73438 34.9875 285.73438 32.45625Q285.73438 29.83125 287.07812 28.39375Q288.42188 26.940624 290.57812 26.940624Q292.65625 26.940624 293.96875 28.3625Q295.29688 29.76875 295.29688 32.346874Q295.29688 32.503124 295.28125 32.815624L287.54688 32.815624Q287.64062 34.51875 288.51562 35.425Q289.39062 36.33125 290.6875 36.33125Q291.65625 36.33125 292.32812 35.83125Q293.01562 35.315624 293.42188 34.20625ZM287.64062 31.3625L293.4375 31.3625Q293.32812 30.065624 292.78125 29.409374Q291.9375 28.39375 290.59375 28.39375Q289.39062 28.39375 288.5625 29.20625Q287.73438 30.003124 287.64062 31.3625ZM302.96875 30.58125Q302.96875 27.01875 304.875 25.003124Q306.79688 22.971874 309.82812 22.971874Q311.8125 22.971874 313.39062 23.925Q314.98438 24.878124 315.8125 26.58125Q316.65625 28.26875 316.65625 30.409374Q316.65625 32.58125 315.78125 34.3Q314.90625 36.01875 313.28125 36.909374Q311.67188 37.8 309.8125 37.8Q307.79688 37.8 306.20312 36.83125Q304.60938 35.846874 303.78125 34.159374Q302.96875 32.45625 302.96875 30.58125ZM304.92188 30.6125Q304.92188 33.190624 306.3125 34.690624Q307.70312 36.175 309.79688 36.175Q311.9375 36.175 313.3125 34.675Q314.70312 33.159374 314.70312 30.39375Q314.70312 28.659374 314.10938 27.3625Q313.53125 26.05 312.39062 25.33125Q311.25 24.6125 309.82812 24.6125Q307.82812 24.6125 306.375 26.003124Q304.92188 27.378124 304.92188 30.6125ZM319.3125 41.51875L319.3125 27.175L320.92188 27.175L320.92188 28.51875Q321.48438 27.7375 322.1875 27.346874Q322.90625 26.940624 323.92188 26.940624Q325.25 26.940624 326.26562 27.628124Q327.28125 28.315624 327.79688 29.565624Q328.32812 30.8 328.32812 32.284374Q328.32812 33.878124 327.75 35.159374Q327.1875 36.425 326.09375 37.1125Q325.0 37.784374 323.79688 37.784374Q322.92188 37.784374 322.21875 37.409374Q321.53125 37.034374 321.07812 36.471874L321.07812 41.51875L319.3125 41.51875ZM320.90625 32.425Q320.90625 34.425 321.71875 35.378124Q322.53125 36.33125 323.6875 36.33125Q324.85938 36.33125 325.6875 35.346874Q326.53125 34.3625 326.53125 32.26875Q326.53125 30.3 325.70312 29.315624Q324.89062 28.315624 323.76562 28.315624Q322.64062 28.315624 321.76562 29.378124Q320.90625 30.425 320.90625 32.425ZM334.15625 35.971874L334.40625 37.534374Q333.67188 37.690624 333.07812 37.690624Q332.125 37.690624 331.59375 37.39375Q331.07812 37.08125 330.85938 36.596874Q330.64062 36.096874 330.64062 34.51875L330.64062 28.55L329.35938 28.55L329.35938 27.175L330.64062 27.175L330.64062 24.6125L332.39062 23.55L332.39062 27.175L334.15625 27.175L334.15625 28.55L332.39062 28.55L332.39062 34.6125Q332.39062 35.3625 332.48438 35.58125Q332.57812 35.784374 332.78125 35.925Q333.0 36.05 333.39062 36.05Q333.67188 36.05 334.15625 35.971874ZM336.32812 25.253124L336.32812 23.2375L338.09375 23.2375L338.09375 25.253124L336.32812 25.253124ZM336.32812 37.55L336.32812 27.175L338.09375 27.175L338.09375 37.55L336.32812 37.55ZM340.3125 37.55L340.3125 27.175L341.89062 27.175L341.89062 28.628124Q342.375 27.878124 343.1875 27.409374Q344.0 26.940624 345.03125 26.940624Q346.1875 26.940624 346.92188 27.425Q347.65625 27.89375 347.96875 28.753124Q349.20312 26.940624 351.17188 26.940624Q352.71875 26.940624 353.54688 27.8Q354.375 28.659374 354.375 30.425L354.375 37.55L352.625 37.55L352.625 31.01875Q352.625 29.95625 352.45312 29.503124Q352.28125 29.034374 351.82812 28.753124Q351.39062 28.471874 350.78125 28.471874Q349.6875 28.471874 348.95312 29.20625Q348.23438 29.925 348.23438 31.51875L348.23438 37.55L346.48438 37.55L346.48438 30.815624Q346.48438 29.64375 346.04688 29.065624Q345.625 28.471874 344.64062 28.471874Q343.90625 28.471874 343.26562 28.8625Q342.64062 29.253124 342.35938 30.003124Q342.07812 30.753124 342.07812 32.175L342.07812 37.55L340.3125 37.55ZM356.32812 25.253124L356.32812 23.2375L358.09375 23.2375L358.09375 25.253124L356.32812 25.253124ZM356.32812 37.55L356.32812 27.175L358.09375 27.175L358.09375 37.55L356.32812 37.55ZM359.39062 37.55L359.39062 36.128124L366.0 28.55Q364.875 28.596874 364.01562 28.596874L359.78125 28.596874L359.78125 27.175L368.26562 27.175L368.26562 28.346874L362.64062 34.925L361.5625 36.128124Q362.73438 36.034374 363.78125 36.034374L368.57812 36.034374L368.57812 37.55L359.39062 37.55ZM376.42188 34.20625L378.23438 34.440624Q377.8125 36.01875 376.64062 36.909374Q375.48438 37.784374 373.67188 37.784374Q371.40625 37.784374 370.0625 36.39375Q368.73438 34.9875 368.73438 32.45625Q368.73438 29.83125 370.07812 28.39375Q371.42188 26.940624 373.57812 26.940624Q375.65625 26.940624 376.96875 28.3625Q378.29688 29.76875 378.29688 32.346874Q378.29688 32.503124 378.28125 32.815624L370.54688 32.815624Q370.64062 34.51875 371.51562 35.425Q372.39062 36.33125 373.6875 36.33125Q374.65625 36.33125 375.32812 35.83125Q376.01562 35.315624 376.42188 34.20625ZM370.64062 31.3625L376.4375 31.3625Q376.32812 30.065624 375.78125 29.409374Q374.9375 28.39375 373.59375 28.39375Q372.39062 28.39375 371.5625 29.20625Q370.73438 30.003124 370.64062 31.3625ZM387.04688 37.55L387.04688 36.2375Q386.0625 37.784374 384.14062 37.784374Q382.90625 37.784374 381.85938 37.096874Q380.82812 36.409374 380.25 35.190624Q379.6875 33.971874 379.6875 32.378124Q379.6875 30.815624 380.20312 29.55Q380.71875 28.284374 381.75 27.6125Q382.79688 26.940624 384.0625 26.940624Q385.0 26.940624 385.73438 27.346874Q386.46875 27.7375 386.9375 28.3625L386.9375 23.2375L388.67188 23.2375L388.67188 37.55L387.04688 37.55ZM381.48438 32.378124Q381.48438 34.3625 382.32812 35.346874Q383.17188 36.33125 384.3125 36.33125Q385.46875 36.33125 386.26562 35.39375Q387.07812 34.45625 387.07812 32.51875Q387.07812 30.39375 386.25 29.39375Q385.4375 28.39375 384.23438 28.39375Q383.0625 28.39375 382.26562 29.3625Q381.48438 30.315624 381.48438 32.378124Z" fill-rule="nonzero"/></svg>